<svg width="60" height="50" viewBox="0 0 60 50" fill="none" xmlns="http://www.w3.org/2000/svg">
<path d="M49.1748 6.81998C49.1595 6.78906 49.1341 6.76482 49.1032 6.75162C45.5291 5.04348 41.7575 3.82544 37.8826 3.12799C37.8474 3.12117 37.811 3.12609 37.7786 3.14204C37.7463 3.158 37.7196 3.18418 37.7023 3.21685C37.1887 4.18784 36.7225 5.1852 36.3054 6.20514C32.1285 5.54467 27.8799 5.54467 23.703 6.20514C23.2832 5.18261 22.8095 4.185 22.2841 3.21685C22.2661 3.18489 22.2392 3.15931 22.207 3.14346C22.1749 3.12761 22.1389 3.12222 22.1037 3.12799C18.2284 3.82398 14.4565 5.04211 10.883 6.75172C10.8524 6.76523 10.8266 6.7883 10.8091 6.81774C3.66261 17.9347 1.70492 28.7784 2.6653 39.4878C2.668 39.514 2.67574 39.5394 2.68806 39.5625C2.70038 39.5856 2.71703 39.6058 2.73702 39.622C6.89834 42.8316 11.5528 45.2814 16.5019 46.8671C16.5367 46.878 16.5739 46.8775 16.6085 46.8657C16.6431 46.8539 16.6734 46.8313 16.6953 46.801C17.7582 45.2945 18.7001 43.6992 19.5112 42.0313C19.5224 42.0084 19.5288 41.9833 19.5299 41.9577C19.5311 41.9321 19.527 41.9065 19.518 41.8826C19.509 41.8587 19.4952 41.8371 19.4775 41.8192C19.4599 41.8012 19.4388 41.7874 19.4157 41.7786C17.9305 41.1866 16.4926 40.473 15.1156 39.6445C15.0906 39.6292 15.0696 39.6077 15.0544 39.5819C15.0393 39.5561 15.0304 39.5269 15.0287 39.4967C15.027 39.4665 15.0325 39.4364 15.0446 39.4089C15.0567 39.3814 15.0751 39.3575 15.0982 39.3392C15.3872 39.1137 15.6763 38.8792 15.9522 38.6423C15.9767 38.6212 16.0064 38.6077 16.0379 38.6033C16.0693 38.5989 16.1014 38.6037 16.1303 38.6173C25.1518 42.906 34.9188 42.906 43.8335 38.6173C43.8625 38.6029 43.8949 38.5974 43.9268 38.6014C43.9587 38.6054 43.9889 38.6188 44.0138 38.64C44.2898 38.8769 44.5789 39.1137 44.87 39.3392C44.8932 39.3573 44.9118 39.3811 44.9241 39.4085C44.9364 39.4358 44.9421 39.4659 44.9406 39.4961C44.9391 39.5263 44.9305 39.5556 44.9155 39.5815C44.9005 39.6074 44.8797 39.629 44.8548 39.6445C43.4809 40.48 42.0417 41.1931 40.5526 41.7763C40.5295 41.7855 40.5085 41.7997 40.4909 41.8179C40.4734 41.8361 40.4598 41.8579 40.451 41.882C40.4421 41.906 40.4382 41.9318 40.4396 41.9575C40.4409 41.9833 40.4475 42.0084 40.4588 42.0313C41.2836 43.6899 42.2241 45.2832 43.2727 46.7984C43.2939 46.8295 43.3241 46.8528 43.3588 46.8651C43.3935 46.8774 43.431 46.8779 43.4661 46.8668C48.424 45.2865 53.0866 42.8364 57.2531 39.622C57.2734 39.6066 57.2903 39.5869 57.3027 39.5641C57.315 39.5413 57.3226 39.5161 57.3248 39.49C58.4746 27.1089 55.4 16.3541 49.1748 6.81998ZM20.8585 32.9669C18.1424 32.9669 15.9044 30.3705 15.9044 27.1818C15.9044 23.9931 18.099 21.3965 20.8585 21.3965C23.6396 21.3965 25.856 24.0157 25.8126 27.1816C25.8126 30.3705 23.6179 32.9669 20.8585 32.9669ZM39.1754 32.9669C36.4594 32.9669 34.2214 30.3705 34.2214 27.1818C34.2214 23.9931 36.416 21.3965 39.1754 21.3965C41.9567 21.3965 44.1729 24.0157 44.1295 27.1816C44.1295 30.3705 41.9567 32.9669 39.1754 32.9669Z" fill="white"/>
</svg>
