<svg width="442" height="404" viewBox="0 0 442 404" fill="none" xmlns="http://www.w3.org/2000/svg">
<path d="M55.048 111L53.704 74.52L25.672 78.456L24.52 111H12.136L9.448 36.12H27.208L26.152 65.784L53.608 70.68L52.36 36.12H70.312L67.624 111H55.048ZM138.623 84.312C138.623 88.536 137.759 92.376 136.031 95.832C134.303 99.224 132.031 102.136 129.215 104.568C126.399 107 123.359 108.888 120.095 110.232C116.831 111.512 113.663 112.152 110.591 112.152C107.519 112.152 104.351 111.512 101.087 110.232C97.8228 108.888 94.7508 107 91.8708 104.568C89.0548 102.136 86.7508 99.224 84.9588 95.832C83.2308 92.376 82.3668 88.536 82.3668 84.312C82.3668 80.088 83.2308 76.248 84.9588 72.792C86.7508 69.336 89.0548 66.392 91.8708 63.96C94.7508 61.464 97.8228 59.576 101.087 58.296C104.351 56.952 107.519 56.28 110.591 56.28C113.663 56.28 116.831 56.952 120.095 58.296C123.359 59.576 126.399 61.464 129.215 63.96C132.031 66.392 134.303 69.336 136.031 72.792C137.759 76.248 138.623 80.088 138.623 84.312ZM113.471 105.24C116.863 105.24 119.455 104.024 121.247 101.592C123.039 99.096 123.935 94.616 123.935 88.152C123.935 82.392 123.039 77.688 121.247 74.04C119.519 70.392 117.407 67.736 114.911 66.072C112.415 64.344 110.015 63.48 107.711 63.48C105.471 63.48 103.551 63.992 101.951 65.016C100.351 66.04 99.1348 67.8 98.3028 70.296C97.4708 72.728 97.0548 76.12 97.0548 80.472C97.0548 84.376 97.5668 87.864 98.5908 90.936C99.6788 94.008 101.055 96.632 102.719 98.808C104.383 100.92 106.143 102.52 107.999 103.608C109.919 104.696 111.743 105.24 113.471 105.24ZM152.265 111L148.809 57.528H165.705L165.417 67.032C166.889 65.112 168.681 63.352 170.793 61.752C172.905 60.088 175.177 58.776 177.609 57.816C180.105 56.792 182.601 56.28 185.097 56.28V70.392C183.817 69.688 182.377 69.176 180.777 68.856C179.241 68.472 177.641 68.28 175.977 68.28C173.993 68.28 172.041 68.536 170.121 69.048C168.201 69.496 166.601 70.168 165.321 71.064L164.073 111H152.265ZM190.684 34.776L214.012 38.808L198.364 54.552L190.684 34.776ZM194.812 111L192.316 57.528H209.212L206.716 111H194.812ZM253.611 250L252.267 213.52L224.234 217.456L223.083 250H210.699L208.011 175.12H225.771L224.715 204.784L252.171 209.68L250.923 175.12H268.875L266.187 250H253.611ZM337.185 223.312C337.185 227.536 336.321 231.376 334.593 234.832C332.865 238.224 330.593 241.136 327.777 243.568C324.961 246 321.921 247.888 318.657 249.232C315.393 250.512 312.225 251.152 309.153 251.152C306.081 251.152 302.913 250.512 299.649 249.232C296.385 247.888 293.313 246 290.433 243.568C287.617 241.136 285.313 238.224 283.521 234.832C281.793 231.376 280.929 227.536 280.929 223.312C280.929 219.088 281.793 215.248 283.521 211.792C285.313 208.336 287.617 205.392 290.433 202.96C293.313 200.464 296.385 198.576 299.649 197.296C302.913 195.952 306.081 195.28 309.153 195.28C312.225 195.28 315.393 195.952 318.657 197.296C321.921 198.576 324.961 200.464 327.777 202.96C330.593 205.392 332.865 208.336 334.593 211.792C336.321 215.248 337.185 219.088 337.185 223.312ZM312.033 244.24C315.425 244.24 318.017 243.024 319.809 240.592C321.601 238.096 322.497 233.616 322.497 227.152C322.497 221.392 321.601 216.688 319.809 213.04C318.081 209.392 315.969 206.736 313.473 205.072C310.977 203.344 308.577 202.48 306.273 202.48C304.033 202.48 302.113 202.992 300.513 204.016C298.913 205.04 297.697 206.8 296.865 209.296C296.033 211.728 295.617 215.12 295.617 219.472C295.617 223.376 296.129 226.864 297.153 229.936C298.241 233.008 299.617 235.632 301.281 237.808C302.945 239.92 304.705 241.52 306.561 242.608C308.481 243.696 310.305 244.24 312.033 244.24ZM350.828 250L347.372 196.528H364.268L363.98 206.032C365.452 204.112 367.244 202.352 369.356 200.752C371.468 199.088 373.74 197.776 376.172 196.816C378.668 195.792 381.164 195.28 383.66 195.28V209.392C382.38 208.688 380.94 208.176 379.34 207.856C377.804 207.472 376.204 207.28 374.54 207.28C372.556 207.28 370.604 207.536 368.684 208.048C366.764 208.496 365.164 209.168 363.884 210.064L362.636 250H350.828ZM389.247 173.776L412.575 177.808L396.927 193.552L389.247 173.776ZM393.375 250L390.879 196.528H407.775L405.279 250H393.375Z" fill="white"/>
<line x1="371.536" y1="36.8794" x2="15.1294" y2="276.714" stroke="#FFFEFE" stroke-width="20" stroke-linecap="round"/>
<path d="M132.532 346L131.604 327.28L124.468 343.568H124.244L117.076 327.28L114.164 346.448H113.684L111.924 321.04H117.812L125.588 333.968L131.54 321.04H136.756L136.276 346H132.532ZM165.556 346.352L161.78 338.288L149.108 340.496L145.78 346.352H145.268L154.036 321.072L159.092 320.304L169.332 345.936L165.556 346.352ZM156.564 327.152L151.604 336.016L161.396 337.52L156.564 327.152ZM182.228 346L181.044 321.04H186.868L186.804 323.44L197.748 320.72V325.904L186.772 324.784L186.324 346H182.228ZM229.556 346.352L225.78 338.288L213.108 340.496L209.78 346.352H209.268L218.036 321.072L223.092 320.304L233.332 345.936L229.556 346.352ZM220.564 327.152L215.604 336.016L225.396 337.52L220.564 327.152ZM257.78 337.712C257.78 337.285 257.737 336.837 257.652 336.368C257.567 335.899 257.321 335.504 256.916 335.184C256.532 334.843 255.871 334.672 254.932 334.672C254.292 334.672 253.503 334.779 252.564 334.992C251.625 335.184 250.495 335.525 249.172 336.016L247.604 332.752C249.78 332.304 251.54 331.76 252.884 331.12C254.228 330.459 255.209 329.776 255.828 329.072C256.447 328.347 256.756 327.685 256.756 327.088C256.756 326.085 256.457 325.253 255.86 324.592C255.284 323.909 254.569 323.568 253.716 323.568C252.415 323.568 251.135 323.877 249.876 324.496C248.617 325.093 247.369 326.117 246.132 327.568L243.444 324.176C244.916 322.704 246.484 321.701 248.148 321.168C249.833 320.635 251.807 320.368 254.068 320.368C255.711 320.368 257.119 320.677 258.292 321.296C259.487 321.893 260.393 322.64 261.012 323.536C261.652 324.432 261.972 325.328 261.972 326.224C261.972 326.309 261.972 326.384 261.972 326.448C261.972 326.512 261.961 326.587 261.94 326.672C261.791 327.781 261.225 328.816 260.244 329.776C259.263 330.715 257.663 331.504 255.444 332.144C257.108 332.144 258.516 332.421 259.668 332.976C260.841 333.531 261.727 334.267 262.324 335.184C262.943 336.08 263.252 337.061 263.252 338.128C263.252 338.96 263.06 339.877 262.676 340.88C262.292 341.861 261.684 342.789 260.852 343.664C260.041 344.539 258.964 345.264 257.62 345.84C256.297 346.395 254.676 346.672 252.756 346.672C251.881 346.672 250.847 346.448 249.652 346C248.457 345.573 247.252 344.933 246.036 344.08C244.841 343.205 243.796 342.117 242.9 340.816L243.06 340.496C244.767 341.648 246.399 342.48 247.956 342.992C249.535 343.504 250.879 343.76 251.988 343.76C252.137 343.76 252.276 343.76 252.404 343.76C252.532 343.76 252.649 343.749 252.756 343.728C253.972 343.579 254.943 343.205 255.668 342.608C256.415 341.989 256.948 341.264 257.268 340.432C257.609 339.579 257.78 338.736 257.78 337.904V337.712ZM291.476 346.416L288.948 328.784L276.5 346.416H275.956L273.78 321.04H279.572L278.74 338.896L288.788 321.04H294.356L291.988 346.416H291.476ZM321.556 346L321.108 333.84L311.764 335.152L311.38 346H307.252L306.356 321.04H312.276L311.924 330.928L321.076 332.56L320.66 321.04H326.644L325.748 346H321.556ZM62.0564 396.128L60.9044 392H46.8884L45.3524 367.04H51.1444L50.2804 389.888L59.7204 388.288L58.7604 367.04H64.5844L63.2084 387.68L66.3764 387.136L64.8404 396.128H62.0564ZM93.9604 392.416L91.4324 374.784L78.9844 392.416H78.4404L76.2644 367.04H82.0564L81.2244 384.896L91.2724 367.04H96.8404L94.4724 392.416H93.9604ZM117.032 392L116.936 389.504C115.72 389.248 114.472 388.811 113.192 388.192C111.912 387.573 110.718 386.816 109.608 385.92C108.52 385.024 107.635 384.021 106.952 382.912C106.27 381.781 105.928 380.576 105.928 379.296C105.928 378.123 106.238 377.013 106.856 375.968C107.475 374.901 108.296 373.931 109.32 373.056C110.344 372.181 111.454 371.435 112.648 370.816C113.864 370.176 115.059 369.707 116.232 369.408L116.136 367.04H121.768L121.704 369.376C122.878 369.675 124.072 370.133 125.288 370.752C126.504 371.371 127.624 372.117 128.648 372.992C129.672 373.867 130.494 374.837 131.112 375.904C131.752 376.971 132.072 378.101 132.072 379.296C132.072 380.576 131.72 381.792 131.016 382.944C130.334 384.075 129.427 385.099 128.296 386.016C127.187 386.912 125.982 387.669 124.68 388.288C123.4 388.885 122.163 389.301 120.968 389.536L120.872 392H117.032ZM116.328 371.808C115.667 372.043 115.016 372.427 114.376 372.96C113.758 373.472 113.182 374.059 112.648 374.72C112.136 375.381 111.72 376.064 111.4 376.768C111.102 377.451 110.952 378.091 110.952 378.688C110.952 379.968 111.24 381.131 111.816 382.176C112.392 383.2 113.128 384.075 114.024 384.8C114.92 385.504 115.848 386.048 116.808 386.432L116.328 371.808ZM121.064 387.104C121.768 386.955 122.472 386.635 123.176 386.144C123.88 385.632 124.52 385.024 125.096 384.32C125.694 383.595 126.163 382.848 126.504 382.08C126.867 381.291 127.048 380.565 127.048 379.904C127.048 378.731 126.782 377.664 126.248 376.704C125.715 375.723 125.032 374.869 124.2 374.144C123.368 373.419 122.494 372.853 121.576 372.448L121.064 387.104ZM143.176 392L141.992 367.04H147.816L147.784 368C148.936 367.659 150.014 367.413 151.016 367.264C152.04 367.115 152.979 367.04 153.832 367.04C155.539 367.04 156.968 367.296 158.12 367.808C159.294 368.299 160.179 368.949 160.776 369.76C161.374 370.549 161.672 371.413 161.672 372.352C161.672 373.269 161.47 374.229 161.064 375.232C160.659 376.235 159.934 377.195 158.888 378.112C157.864 379.029 156.424 379.819 154.568 380.48C152.734 381.141 150.376 381.589 147.496 381.824L147.272 392H143.176ZM147.496 381.184C149.246 380.843 150.675 380.32 151.784 379.616C152.915 378.912 153.79 378.123 154.408 377.248C155.027 376.373 155.454 375.509 155.688 374.656C155.944 373.803 156.072 373.067 156.072 372.448C156.072 371.573 155.667 370.827 154.856 370.208C154.067 369.568 152.723 369.248 150.824 369.248C150.376 369.248 149.896 369.269 149.384 369.312C148.872 369.333 148.328 369.397 147.752 369.504L147.496 381.184ZM183.048 392.64C181.832 392.64 180.552 392.341 179.208 391.744C177.886 391.125 176.638 390.24 175.464 389.088C174.291 387.936 173.342 386.549 172.616 384.928C171.891 383.307 171.528 381.483 171.528 379.456C171.528 377.877 171.763 376.416 172.232 375.072C172.723 373.707 173.374 372.491 174.184 371.424C174.995 370.357 175.902 369.451 176.904 368.704C177.907 367.936 178.931 367.36 179.976 366.976C181.043 366.571 182.067 366.368 183.048 366.368C184.008 366.368 185.011 366.571 186.056 366.976C187.123 367.381 188.147 367.968 189.128 368.736C190.131 369.483 191.038 370.389 191.848 371.456C192.659 372.523 193.299 373.728 193.768 375.072C194.238 376.416 194.472 377.877 194.472 379.456C194.472 381.483 194.11 383.307 193.384 384.928C192.659 386.549 191.72 387.936 190.568 389.088C189.416 390.24 188.179 391.125 186.856 391.744C185.534 392.341 184.264 392.64 183.048 392.64ZM184.328 389.888C185.331 389.888 186.216 389.557 186.984 388.896C187.752 388.235 188.35 387.317 188.776 386.144C189.224 384.949 189.448 383.573 189.448 382.016C189.448 379.861 189.203 377.984 188.712 376.384C188.222 374.763 187.582 373.419 186.792 372.352C186.003 371.285 185.16 370.485 184.264 369.952C183.39 369.419 182.558 369.152 181.768 369.152C180.787 369.152 179.902 369.483 179.112 370.144C178.323 370.784 177.694 371.68 177.224 372.832C176.776 373.984 176.552 375.339 176.552 376.896C176.552 379.179 176.798 381.141 177.288 382.784C177.8 384.427 178.451 385.771 179.24 386.816C180.051 387.861 180.904 388.64 181.8 389.152C182.696 389.643 183.539 389.888 184.328 389.888ZM205.8 367.04H211.624L211.592 368.736C212.51 368.181 213.448 367.765 214.408 367.488C215.368 367.189 216.318 367.04 217.256 367.04C219.667 367.04 221.427 367.509 222.536 368.448C223.667 369.365 224.232 370.517 224.232 371.904C224.232 372.032 224.222 372.16 224.2 372.288C224.2 372.416 224.19 372.544 224.168 372.672C224.04 373.696 223.496 374.72 222.536 375.744C221.576 376.768 220.062 377.717 217.992 378.592C219.614 378.677 220.979 379.008 222.088 379.584C223.198 380.16 224.04 380.832 224.616 381.6C225.192 382.368 225.48 383.104 225.48 383.808C225.48 385.579 224.744 387.115 223.272 388.416C221.822 389.696 219.72 390.688 216.968 391.392C214.216 392.075 210.888 392.416 206.984 392.416L205.8 367.04ZM211.368 379.712C213.224 378.837 214.707 377.952 215.816 377.056C216.947 376.16 217.768 375.339 218.28 374.592C218.814 373.824 219.112 373.237 219.176 372.832C219.198 372.747 219.208 372.672 219.208 372.608C219.208 372.523 219.208 372.437 219.208 372.352C219.208 371.627 218.974 370.965 218.504 370.368C218.035 369.749 217.395 369.44 216.584 369.44C215.667 369.44 214.814 369.493 214.024 369.6C213.235 369.685 212.414 369.856 211.56 370.112L211.368 379.712ZM211.112 390.912C212.904 390.507 214.366 390.037 215.496 389.504C216.648 388.949 217.534 388.363 218.152 387.744C218.792 387.125 219.24 386.496 219.496 385.856C219.752 385.195 219.88 384.544 219.88 383.904C219.88 383.541 219.763 383.189 219.528 382.848C219.294 382.485 218.867 382.155 218.248 381.856C217.63 381.536 216.755 381.28 215.624 381.088C214.515 380.875 213.086 380.757 211.336 380.736L211.112 390.912ZM255.432 392L254.568 367.04H260.232L259.368 392H255.432ZM233.416 367.04H239.08L238.92 376.736C239.838 376.565 240.702 376.437 241.512 376.352C242.323 376.267 243.08 376.224 243.784 376.224C246.515 376.224 248.542 376.832 249.864 378.048C251.187 379.243 251.848 381.013 251.848 383.36C251.848 385.131 251.219 386.699 249.96 388.064C248.723 389.429 246.824 390.496 244.264 391.264C241.726 392.032 238.504 392.416 234.6 392.416L233.416 367.04ZM238.568 390.912C240.36 390.507 241.768 390.016 242.792 389.44C243.838 388.864 244.606 388.245 245.096 387.584C245.587 386.923 245.896 386.251 246.024 385.568C246.174 384.885 246.248 384.224 246.248 383.584C246.248 382.667 246.088 381.909 245.768 381.312C245.448 380.693 244.894 380.235 244.104 379.936C243.336 379.637 242.248 379.488 240.84 379.488C240.222 379.488 239.539 379.52 238.792 379.584L238.568 390.912ZM286.248 392.288L278.632 381.632L270.472 392.416H269.928L277.096 379.456L268.936 368L274.248 366.336L279.592 374.912L283.944 367.04H289.672L281.448 377.92L290.248 392L286.248 392.288ZM328.992 392.416L326.464 374.784L314.016 392.416H313.472L311.296 367.04H317.088L316.256 384.896L326.304 367.04H331.872L329.504 392.416H328.992ZM347.744 392L346.56 367.04H352.384L352.32 369.44L363.264 366.72V371.904L352.288 370.784L351.84 392H347.744ZM378.208 392L377.024 367.04H382.848L382.816 368C383.968 367.659 385.045 367.413 386.048 367.264C387.072 367.115 388.01 367.04 388.864 367.04C390.57 367.04 392 367.296 393.152 367.808C394.325 368.299 395.21 368.949 395.808 369.76C396.405 370.549 396.704 371.413 396.704 372.352C396.704 373.269 396.501 374.229 396.096 375.232C395.69 376.235 394.965 377.195 393.92 378.112C392.896 379.029 391.456 379.819 389.6 380.48C387.765 381.141 385.408 381.589 382.528 381.824L382.304 392H378.208ZM382.528 381.184C384.277 380.843 385.706 380.32 386.816 379.616C387.946 378.912 388.821 378.123 389.44 377.248C390.058 376.373 390.485 375.509 390.72 374.656C390.976 373.803 391.104 373.067 391.104 372.448C391.104 371.573 390.698 370.827 389.888 370.208C389.098 369.568 387.754 369.248 385.856 369.248C385.408 369.248 384.928 369.269 384.416 369.312C383.904 369.333 383.36 369.397 382.784 369.504L382.528 381.184Z" fill="white"/>
</svg>
