<svg width="366" height="346" viewBox="0 0 366 346" fill="none" xmlns="http://www.w3.org/2000/svg">
<path d="M43.2251 87L42.1751 58.5L20.2751 61.575L19.3751 87H9.70012L7.60012 28.5H21.4751L20.6501 51.675L42.1001 55.5L41.1251 28.5H55.1501L53.0501 87H43.2251ZM108.518 66.15C108.518 69.45 107.843 72.45 106.493 75.15C105.143 77.8 103.368 80.075 101.168 81.975C98.9679 83.875 96.5929 85.35 94.0429 86.4C91.4929 87.4 89.0179 87.9 86.6179 87.9C84.2179 87.9 81.7429 87.4 79.1929 86.4C76.6429 85.35 74.2429 83.875 71.9929 81.975C69.7929 80.075 67.9929 77.8 66.5929 75.15C65.2429 72.45 64.5679 69.45 64.5679 66.15C64.5679 62.85 65.2429 59.85 66.5929 57.15C67.9929 54.45 69.7929 52.15 71.9929 50.25C74.2429 48.3 76.6429 46.825 79.1929 45.825C81.7429 44.775 84.2179 44.25 86.6179 44.25C89.0179 44.25 91.4929 44.775 94.0429 45.825C96.5929 46.825 98.9679 48.3 101.168 50.25C103.368 52.15 105.143 54.45 106.493 57.15C107.843 59.85 108.518 62.85 108.518 66.15ZM88.8679 82.5C91.5179 82.5 93.5429 81.55 94.9429 79.65C96.3429 77.7 97.0429 74.2 97.0429 69.15C97.0429 64.65 96.3429 60.975 94.9429 58.125C93.5929 55.275 91.9429 53.2 89.9929 51.9C88.0429 50.55 86.1679 49.875 84.3679 49.875C82.6179 49.875 81.1179 50.275 79.8679 51.075C78.6179 51.875 77.6679 53.25 77.0179 55.2C76.3679 57.1 76.0429 59.75 76.0429 63.15C76.0429 66.2 76.4429 68.925 77.2429 71.325C78.0929 73.725 79.1679 75.775 80.4679 77.475C81.7679 79.125 83.1429 80.375 84.5929 81.225C86.0929 82.075 87.5179 82.5 88.8679 82.5ZM119.176 87L116.476 45.225H129.676L129.451 52.65C130.601 51.15 132.001 49.775 133.651 48.525C135.301 47.225 137.076 46.2 138.976 45.45C140.926 44.65 142.876 44.25 144.826 44.25V55.275C143.826 54.725 142.701 54.325 141.451 54.075C140.251 53.775 139.001 53.625 137.701 53.625C136.151 53.625 134.626 53.825 133.126 54.225C131.626 54.575 130.376 55.1 129.376 55.8L128.401 87H119.176ZM149.191 27.45L167.416 30.6L155.191 42.9L149.191 27.45ZM152.416 87L150.466 45.225H163.666L161.716 87H152.416ZM224.207 196L223.157 167.5L201.257 170.575L200.357 196H190.682L188.582 137.5H202.457L201.632 160.675L223.082 164.5L222.107 137.5H236.132L234.032 196H224.207ZM289.499 175.15C289.499 178.45 288.824 181.45 287.474 184.15C286.124 186.8 284.349 189.075 282.149 190.975C279.949 192.875 277.574 194.35 275.024 195.4C272.474 196.4 269.999 196.9 267.599 196.9C265.199 196.9 262.724 196.4 260.174 195.4C257.624 194.35 255.224 192.875 252.974 190.975C250.774 189.075 248.974 186.8 247.574 184.15C246.224 181.45 245.549 178.45 245.549 175.15C245.549 171.85 246.224 168.85 247.574 166.15C248.974 163.45 250.774 161.15 252.974 159.25C255.224 157.3 257.624 155.825 260.174 154.825C262.724 153.775 265.199 153.25 267.599 153.25C269.999 153.25 272.474 153.775 275.024 154.825C277.574 155.825 279.949 157.3 282.149 159.25C284.349 161.15 286.124 163.45 287.474 166.15C288.824 168.85 289.499 171.85 289.499 175.15ZM269.849 191.5C272.499 191.5 274.524 190.55 275.924 188.65C277.324 186.7 278.024 183.2 278.024 178.15C278.024 173.65 277.324 169.975 275.924 167.125C274.574 164.275 272.924 162.2 270.974 160.9C269.024 159.55 267.149 158.875 265.349 158.875C263.599 158.875 262.099 159.275 260.849 160.075C259.599 160.875 258.649 162.25 257.999 164.2C257.349 166.1 257.024 168.75 257.024 172.15C257.024 175.2 257.424 177.925 258.224 180.325C259.074 182.725 260.149 184.775 261.449 186.475C262.749 188.125 264.124 189.375 265.574 190.225C267.074 191.075 268.499 191.5 269.849 191.5ZM300.158 196L297.458 154.225H310.658L310.433 161.65C311.583 160.15 312.983 158.775 314.633 157.525C316.283 156.225 318.058 155.2 319.958 154.45C321.908 153.65 323.858 153.25 325.808 153.25V164.275C324.808 163.725 323.683 163.325 322.433 163.075C321.233 162.775 319.983 162.625 318.683 162.625C317.133 162.625 315.608 162.825 314.108 163.225C312.608 163.575 311.358 164.1 310.358 164.8L309.383 196H300.158ZM330.172 136.45L348.397 139.6L336.172 151.9L330.172 136.45ZM333.397 196L331.447 154.225H344.647L342.697 196H333.397Z" fill="white"/>
<line x1="317.191" y1="40.7527" x2="9.75271" y2="198.809" stroke="#FFFEFE" stroke-width="13" stroke-linecap="round"/>
<path d="M94.942 254L94.014 235.28L86.878 251.568H86.654L79.486 235.28L76.574 254.448H76.094L74.334 229.04H80.222L87.998 241.968L93.95 229.04H99.166L98.686 254H94.942ZM127.966 254.352L124.19 246.288L111.518 248.496L108.19 254.352H107.678L116.446 229.072L121.502 228.304L131.742 253.936L127.966 254.352ZM118.974 235.152L114.014 244.016L123.806 245.52L118.974 235.152ZM144.638 254L143.454 229.04H149.278L149.214 231.44L160.158 228.72V233.904L149.182 232.784L148.734 254H144.638ZM191.966 254.352L188.19 246.288L175.518 248.496L172.19 254.352H171.678L180.446 229.072L185.502 228.304L195.742 253.936L191.966 254.352ZM182.974 235.152L178.014 244.016L187.806 245.52L182.974 235.152ZM220.19 245.712C220.19 245.285 220.147 244.837 220.062 244.368C219.977 243.899 219.731 243.504 219.326 243.184C218.942 242.843 218.281 242.672 217.342 242.672C216.702 242.672 215.913 242.779 214.974 242.992C214.035 243.184 212.905 243.525 211.582 244.016L210.014 240.752C212.19 240.304 213.95 239.76 215.294 239.12C216.638 238.459 217.619 237.776 218.238 237.072C218.857 236.347 219.166 235.685 219.166 235.088C219.166 234.085 218.867 233.253 218.27 232.592C217.694 231.909 216.979 231.568 216.126 231.568C214.825 231.568 213.545 231.877 212.286 232.496C211.027 233.093 209.779 234.117 208.542 235.568L205.854 232.176C207.326 230.704 208.894 229.701 210.558 229.168C212.243 228.635 214.217 228.368 216.478 228.368C218.121 228.368 219.529 228.677 220.702 229.296C221.897 229.893 222.803 230.64 223.422 231.536C224.062 232.432 224.382 233.328 224.382 234.224C224.382 234.309 224.382 234.384 224.382 234.448C224.382 234.512 224.371 234.587 224.35 234.672C224.201 235.781 223.635 236.816 222.654 237.776C221.673 238.715 220.073 239.504 217.854 240.144C219.518 240.144 220.926 240.421 222.078 240.976C223.251 241.531 224.137 242.267 224.734 243.184C225.353 244.08 225.662 245.061 225.662 246.128C225.662 246.96 225.47 247.877 225.086 248.88C224.702 249.861 224.094 250.789 223.262 251.664C222.451 252.539 221.374 253.264 220.03 253.84C218.707 254.395 217.086 254.672 215.166 254.672C214.291 254.672 213.257 254.448 212.062 254C210.867 253.573 209.662 252.933 208.446 252.08C207.251 251.205 206.206 250.117 205.31 248.816L205.47 248.496C207.177 249.648 208.809 250.48 210.366 250.992C211.945 251.504 213.289 251.76 214.398 251.76C214.547 251.76 214.686 251.76 214.814 251.76C214.942 251.76 215.059 251.749 215.166 251.728C216.382 251.579 217.353 251.205 218.078 250.608C218.825 249.989 219.358 249.264 219.678 248.432C220.019 247.579 220.19 246.736 220.19 245.904V245.712ZM253.886 254.416L251.358 236.784L238.91 254.416H238.366L236.19 229.04H241.982L241.15 246.896L251.198 229.04H256.766L254.398 254.416H253.886ZM283.966 254L283.518 241.84L274.174 243.152L273.79 254H269.662L268.766 229.04H274.686L274.334 238.928L283.486 240.56L283.07 229.04H289.054L288.158 254H283.966ZM24.4663 304.128L23.3144 300H9.29835L7.76235 275.04H13.5543L12.6903 297.888L22.1303 296.288L21.1703 275.04H26.9943L25.6183 295.68L28.7864 295.136L27.2503 304.128H24.4663ZM56.3703 300.416L53.8424 282.784L41.3943 300.416H40.8503L38.6743 275.04H44.4663L43.6343 292.896L53.6823 275.04H59.2503L56.8823 300.416H56.3703ZM79.4423 300L79.3463 297.504C78.1303 297.248 76.8823 296.811 75.6023 296.192C74.3223 295.573 73.1277 294.816 72.0183 293.92C70.9303 293.024 70.045 292.021 69.3623 290.912C68.6797 289.781 68.3383 288.576 68.3383 287.296C68.3383 286.123 68.6477 285.013 69.2663 283.968C69.885 282.901 70.7063 281.931 71.7303 281.056C72.7543 280.181 73.8637 279.435 75.0583 278.816C76.2743 278.176 77.469 277.707 78.6423 277.408L78.5463 275.04H84.1783L84.1143 277.376C85.2877 277.675 86.4823 278.133 87.6983 278.752C88.9143 279.371 90.0343 280.117 91.0583 280.992C92.0823 281.867 92.9037 282.837 93.5224 283.904C94.1623 284.971 94.4823 286.101 94.4823 287.296C94.4823 288.576 94.1303 289.792 93.4263 290.944C92.7437 292.075 91.837 293.099 90.7063 294.016C89.597 294.912 88.3917 295.669 87.0903 296.288C85.8103 296.885 84.573 297.301 83.3783 297.536L83.2823 300H79.4423ZM78.7383 279.808C78.077 280.043 77.4263 280.427 76.7863 280.96C76.1677 281.472 75.5917 282.059 75.0583 282.72C74.5463 283.381 74.1303 284.064 73.8103 284.768C73.5117 285.451 73.3623 286.091 73.3623 286.688C73.3623 287.968 73.6503 289.131 74.2263 290.176C74.8023 291.2 75.5383 292.075 76.4343 292.8C77.3303 293.504 78.2583 294.048 79.2183 294.432L78.7383 279.808ZM83.4743 295.104C84.1783 294.955 84.8823 294.635 85.5863 294.144C86.2903 293.632 86.9303 293.024 87.5063 292.32C88.1037 291.595 88.573 290.848 88.9143 290.08C89.277 289.291 89.4583 288.565 89.4583 287.904C89.4583 286.731 89.1917 285.664 88.6583 284.704C88.125 283.723 87.4423 282.869 86.6103 282.144C85.7783 281.419 84.9037 280.853 83.9863 280.448L83.4743 295.104ZM105.586 300L104.402 275.04H110.226L110.194 276C111.346 275.659 112.424 275.413 113.426 275.264C114.45 275.115 115.389 275.04 116.242 275.04C117.949 275.04 119.378 275.296 120.53 275.808C121.704 276.299 122.589 276.949 123.186 277.76C123.784 278.549 124.082 279.413 124.082 280.352C124.082 281.269 123.88 282.229 123.474 283.232C123.069 284.235 122.344 285.195 121.298 286.112C120.274 287.029 118.834 287.819 116.978 288.48C115.144 289.141 112.786 289.589 109.906 289.824L109.682 300H105.586ZM109.906 289.184C111.656 288.843 113.085 288.32 114.194 287.616C115.325 286.912 116.2 286.123 116.818 285.248C117.437 284.373 117.864 283.509 118.098 282.656C118.354 281.803 118.482 281.067 118.482 280.448C118.482 279.573 118.077 278.827 117.266 278.208C116.477 277.568 115.133 277.248 113.234 277.248C112.786 277.248 112.306 277.269 111.794 277.312C111.282 277.333 110.738 277.397 110.162 277.504L109.906 289.184ZM145.458 300.64C144.242 300.64 142.962 300.341 141.618 299.744C140.296 299.125 139.048 298.24 137.874 297.088C136.701 295.936 135.752 294.549 135.026 292.928C134.301 291.307 133.938 289.483 133.938 287.456C133.938 285.877 134.173 284.416 134.642 283.072C135.133 281.707 135.784 280.491 136.594 279.424C137.405 278.357 138.312 277.451 139.314 276.704C140.317 275.936 141.341 275.36 142.386 274.976C143.453 274.571 144.477 274.368 145.458 274.368C146.418 274.368 147.421 274.571 148.466 274.976C149.533 275.381 150.557 275.968 151.538 276.736C152.541 277.483 153.448 278.389 154.258 279.456C155.069 280.523 155.709 281.728 156.178 283.072C156.648 284.416 156.882 285.877 156.882 287.456C156.882 289.483 156.52 291.307 155.794 292.928C155.069 294.549 154.13 295.936 152.978 297.088C151.826 298.24 150.589 299.125 149.266 299.744C147.944 300.341 146.674 300.64 145.458 300.64ZM146.738 297.888C147.741 297.888 148.626 297.557 149.394 296.896C150.162 296.235 150.76 295.317 151.186 294.144C151.634 292.949 151.858 291.573 151.858 290.016C151.858 287.861 151.613 285.984 151.122 284.384C150.632 282.763 149.992 281.419 149.202 280.352C148.413 279.285 147.57 278.485 146.674 277.952C145.8 277.419 144.968 277.152 144.178 277.152C143.197 277.152 142.312 277.483 141.522 278.144C140.733 278.784 140.104 279.68 139.634 280.832C139.186 281.984 138.962 283.339 138.962 284.896C138.962 287.179 139.208 289.141 139.698 290.784C140.21 292.427 140.861 293.771 141.65 294.816C142.461 295.861 143.314 296.64 144.21 297.152C145.106 297.643 145.949 297.888 146.738 297.888ZM168.21 275.04H174.034L174.002 276.736C174.92 276.181 175.858 275.765 176.818 275.488C177.778 275.189 178.728 275.04 179.666 275.04C182.077 275.04 183.837 275.509 184.946 276.448C186.077 277.365 186.642 278.517 186.642 279.904C186.642 280.032 186.632 280.16 186.61 280.288C186.61 280.416 186.6 280.544 186.578 280.672C186.45 281.696 185.906 282.72 184.946 283.744C183.986 284.768 182.472 285.717 180.402 286.592C182.024 286.677 183.389 287.008 184.498 287.584C185.608 288.16 186.45 288.832 187.026 289.6C187.602 290.368 187.89 291.104 187.89 291.808C187.89 293.579 187.154 295.115 185.682 296.416C184.232 297.696 182.13 298.688 179.378 299.392C176.626 300.075 173.298 300.416 169.394 300.416L168.21 275.04ZM173.778 287.712C175.634 286.837 177.117 285.952 178.226 285.056C179.357 284.16 180.178 283.339 180.69 282.592C181.224 281.824 181.522 281.237 181.586 280.832C181.608 280.747 181.618 280.672 181.618 280.608C181.618 280.523 181.618 280.437 181.618 280.352C181.618 279.627 181.384 278.965 180.914 278.368C180.445 277.749 179.805 277.44 178.994 277.44C178.077 277.44 177.224 277.493 176.434 277.6C175.645 277.685 174.824 277.856 173.97 278.112L173.778 287.712ZM173.522 298.912C175.314 298.507 176.776 298.037 177.906 297.504C179.058 296.949 179.944 296.363 180.562 295.744C181.202 295.125 181.65 294.496 181.906 293.856C182.162 293.195 182.29 292.544 182.29 291.904C182.29 291.541 182.173 291.189 181.938 290.848C181.704 290.485 181.277 290.155 180.658 289.856C180.04 289.536 179.165 289.28 178.034 289.088C176.925 288.875 175.496 288.757 173.746 288.736L173.522 298.912ZM217.842 300L216.978 275.04H222.642L221.778 300H217.842ZM195.826 275.04H201.49L201.33 284.736C202.248 284.565 203.112 284.437 203.922 284.352C204.733 284.267 205.49 284.224 206.194 284.224C208.925 284.224 210.952 284.832 212.274 286.048C213.597 287.243 214.258 289.013 214.258 291.36C214.258 293.131 213.629 294.699 212.37 296.064C211.133 297.429 209.234 298.496 206.674 299.264C204.136 300.032 200.914 300.416 197.01 300.416L195.826 275.04ZM200.978 298.912C202.77 298.507 204.178 298.016 205.202 297.44C206.248 296.864 207.016 296.245 207.506 295.584C207.997 294.923 208.306 294.251 208.434 293.568C208.584 292.885 208.658 292.224 208.658 291.584C208.658 290.667 208.498 289.909 208.178 289.312C207.858 288.693 207.304 288.235 206.514 287.936C205.746 287.637 204.658 287.488 203.25 287.488C202.632 287.488 201.949 287.52 201.202 287.584L200.978 298.912ZM248.658 300.288L241.042 289.632L232.882 300.416H232.338L239.506 287.456L231.346 276L236.658 274.336L242.002 282.912L246.354 275.04H252.082L243.858 285.92L252.658 300L248.658 300.288ZM291.402 300.416L288.874 282.784L276.426 300.416H275.882L273.706 275.04H279.498L278.666 292.896L288.714 275.04H294.282L291.914 300.416H291.402ZM310.154 300L308.97 275.04H314.794L314.73 277.44L325.674 274.72V279.904L314.698 278.784L314.25 300H310.154ZM340.618 300L339.434 275.04H345.258L345.226 276C346.378 275.659 347.455 275.413 348.458 275.264C349.482 275.115 350.42 275.04 351.274 275.04C352.98 275.04 354.41 275.296 355.562 275.808C356.735 276.299 357.62 276.949 358.218 277.76C358.815 278.549 359.114 279.413 359.114 280.352C359.114 281.269 358.911 282.229 358.506 283.232C358.1 284.235 357.375 285.195 356.33 286.112C355.306 287.029 353.866 287.819 352.01 288.48C350.175 289.141 347.818 289.589 344.938 289.824L344.714 300H340.618ZM344.938 289.184C346.687 288.843 348.116 288.32 349.226 287.616C350.356 286.912 351.231 286.123 351.85 285.248C352.468 284.373 352.895 283.509 353.13 282.656C353.386 281.803 353.514 281.067 353.514 280.448C353.514 279.573 353.108 278.827 352.298 278.208C351.508 277.568 350.164 277.248 348.266 277.248C347.818 277.248 347.338 277.269 346.826 277.312C346.314 277.333 345.77 277.397 345.194 277.504L344.938 289.184Z" fill="white"/>
</svg>
