<svg width="222" height="222" viewBox="0 0 75 75" fill="none" xmlns="http://www.w3.org/2000/svg">
<circle cx="37.5" cy="37.5" r="37.5" fill="black"/>
<path d="M17.756 34L17.588 29.44L14.084 29.932L13.94 34H12.392L12.056 24.64H14.276L14.144 28.348L17.576 28.96L17.42 24.64H19.664L19.328 34H17.756ZM28.2028 30.664C28.2028 31.192 28.0948 31.672 27.8788 32.104C27.6628 32.528 27.3788 32.892 27.0268 33.196C26.6748 33.5 26.2948 33.736 25.8868 33.904C25.4788 34.064 25.0828 34.144 24.6988 34.144C24.3148 34.144 23.9188 34.064 23.5108 33.904C23.1028 33.736 22.7188 33.5 22.3588 33.196C22.0068 32.892 21.7188 32.528 21.4948 32.104C21.2788 31.672 21.1708 31.192 21.1708 30.664C21.1708 30.136 21.2788 29.656 21.4948 29.224C21.7188 28.792 22.0068 28.424 22.3588 28.12C22.7188 27.808 23.1028 27.572 23.5108 27.412C23.9188 27.244 24.3148 27.16 24.6988 27.16C25.0828 27.16 25.4788 27.244 25.8868 27.412C26.2948 27.572 26.6748 27.808 27.0268 28.12C27.3788 28.424 27.6628 28.792 27.8788 29.224C28.0948 29.656 28.2028 30.136 28.2028 30.664ZM25.0588 33.28C25.4828 33.28 25.8068 33.128 26.0308 32.824C26.2548 32.512 26.3668 31.952 26.3668 31.144C26.3668 30.424 26.2548 29.836 26.0308 29.38C25.8148 28.924 25.5508 28.592 25.2388 28.384C24.9268 28.168 24.6268 28.06 24.3388 28.06C24.0588 28.06 23.8188 28.124 23.6188 28.252C23.4188 28.38 23.2668 28.6 23.1628 28.912C23.0588 29.216 23.0068 29.64 23.0068 30.184C23.0068 30.672 23.0708 31.108 23.1988 31.492C23.3348 31.876 23.5068 32.204 23.7148 32.476C23.9228 32.74 24.1428 32.94 24.3748 33.076C24.6148 33.212 24.8428 33.28 25.0588 33.28ZM29.9082 34L29.4762 27.316H31.5882L31.5522 28.504C31.7362 28.264 31.9602 28.044 32.2242 27.844C32.4882 27.636 32.7722 27.472 33.0762 27.352C33.3882 27.224 33.7002 27.16 34.0122 27.16V28.924C33.8522 28.836 33.6722 28.772 33.4722 28.732C33.2802 28.684 33.0802 28.66 32.8722 28.66C32.6242 28.66 32.3802 28.692 32.1402 28.756C31.9002 28.812 31.7002 28.896 31.5402 29.008L31.3842 34H29.9082ZM34.7105 24.472L37.6265 24.976L35.6705 26.944L34.7105 24.472ZM35.2265 34L34.9145 27.316H37.0265L36.7145 34H35.2265ZM42.5763 51L42.4083 46.44L38.9043 46.932L38.7603 51H37.2123L36.8763 41.64H39.0963L38.9643 45.348L42.3963 45.96L42.2403 41.64H44.4843L44.1483 51H42.5763ZM53.0232 47.664C53.0232 48.192 52.9152 48.672 52.6992 49.104C52.4832 49.528 52.1992 49.892 51.8472 50.196C51.4952 50.5 51.1152 50.736 50.7072 50.904C50.2992 51.064 49.9032 51.144 49.5192 51.144C49.1352 51.144 48.7392 51.064 48.3312 50.904C47.9232 50.736 47.5392 50.5 47.1792 50.196C46.8272 49.892 46.5392 49.528 46.3152 49.104C46.0992 48.672 45.9912 48.192 45.9912 47.664C45.9912 47.136 46.0992 46.656 46.3152 46.224C46.5392 45.792 46.8272 45.424 47.1792 45.12C47.5392 44.808 47.9232 44.572 48.3312 44.412C48.7392 44.244 49.1352 44.16 49.5192 44.16C49.9032 44.16 50.2992 44.244 50.7072 44.412C51.1152 44.572 51.4952 44.808 51.8472 45.12C52.1992 45.424 52.4832 45.792 52.6992 46.224C52.9152 46.656 53.0232 47.136 53.0232 47.664ZM49.8792 50.28C50.3032 50.28 50.6272 50.128 50.8512 49.824C51.0752 49.512 51.1872 48.952 51.1872 48.144C51.1872 47.424 51.0752 46.836 50.8512 46.38C50.6352 45.924 50.3712 45.592 50.0592 45.384C49.7472 45.168 49.4472 45.06 49.1592 45.06C48.8792 45.06 48.6392 45.124 48.4392 45.252C48.2392 45.38 48.0872 45.6 47.9832 45.912C47.8792 46.216 47.8272 46.64 47.8272 47.184C47.8272 47.672 47.8912 48.108 48.0192 48.492C48.1552 48.876 48.3272 49.204 48.5352 49.476C48.7432 49.74 48.9632 49.94 49.1952 50.076C49.4352 50.212 49.6632 50.28 49.8792 50.28ZM54.7285 51L54.2965 44.316H56.4085L56.3725 45.504C56.5565 45.264 56.7805 45.044 57.0445 44.844C57.3085 44.636 57.5925 44.472 57.8965 44.352C58.2085 44.224 58.5205 44.16 58.8325 44.16V45.924C58.6725 45.836 58.4925 45.772 58.2925 45.732C58.1005 45.684 57.9005 45.66 57.6925 45.66C57.4445 45.66 57.2005 45.692 56.9605 45.756C56.7205 45.812 56.5205 45.896 56.3605 46.008L56.2045 51H54.7285ZM59.5308 41.472L62.4468 41.976L60.4908 43.944L59.5308 41.472ZM60.0468 51L59.7348 44.316H61.8468L61.5348 51H60.0468Z" fill="white"/>
<line x1="63.2736" y1="20.4185" x2="11.2736" y2="54.4185" stroke="#FFFEFE"/>
</svg>
