<svg width="309" height="317" viewBox="0 0 309 317" fill="none" xmlns="http://www.w3.org/2000/svg">
<path d="M0 43H269C291.091 43 309 60.9086 309 83V240C309 262.091 291.091 280 269 280H40C17.9086 280 0 262.091 0 240V43Z" fill="url(#paint0_linear_112_337)"/>
<path d="M31.52 214.22L23.34 206.38L22.5 207.16L22.26 214H19.74L19.2 198.4H22.8L22.56 205.36L27.66 198.2L31.28 199.16L25.9 204.04L31.8 214.24L31.52 214.22ZM40 218.24L39.32 202.86H42.82L42.76 204.32C43.2933 203.867 43.9267 203.467 44.66 203.12C45.3933 202.773 46.1067 202.6 46.8 202.6C48.0667 202.6 49.0067 202.993 49.62 203.78C50.2467 204.553 50.56 205.653 50.56 207.08C50.56 208.48 50.2267 209.68 49.56 210.68C48.8933 211.667 47.9467 212.447 46.72 213.02C45.4933 213.593 44.0467 213.967 42.38 214.14L42.22 218.24H40ZM42.42 213.26C43.74 212.807 44.7733 212.267 45.52 211.64C46.2667 211.013 46.7933 210.327 47.1 209.58C47.4067 208.833 47.56 208.053 47.56 207.24C47.56 206.333 47.4067 205.68 47.1 205.28C46.7933 204.88 46.3467 204.68 45.76 204.68C45.2267 204.68 44.72 204.72 44.24 204.8C43.7733 204.88 43.2667 205.027 42.72 205.24L42.42 213.26ZM60.92 217.14L63.76 212.52L58.82 203.46L62.3 202.6L64.86 210.72L69.76 202.68H70.04L64.28 218.58L60.92 217.14ZM81.4 214L80.88 202.86H84.48L84.44 203.88L89.76 202.7V205.94L84.38 204.96L83.96 214H81.4ZM106.96 214L106.52 205.64L102.56 204.7L102.16 210.48C102.133 210.947 101.993 211.407 101.74 211.86C101.5 212.3 101.093 212.733 100.52 213.16C99.9467 213.587 99.1467 214.013 98.12 214.44L98.04 214.28C98.7067 213.44 99.1467 212.74 99.36 212.18C99.5867 211.607 99.7 211.087 99.7 210.62V210.36L99.18 202.86H102.68L102.58 204.46L109.88 202.66L109.42 214H106.96ZM130.34 208.44C130.34 209.32 130.16 210.12 129.8 210.84C129.44 211.547 128.967 212.153 128.38 212.66C127.793 213.167 127.16 213.56 126.48 213.84C125.8 214.107 125.14 214.24 124.5 214.24C123.86 214.24 123.2 214.107 122.52 213.84C121.84 213.56 121.2 213.167 120.6 212.66C120.013 212.153 119.533 211.547 119.16 210.84C118.8 210.12 118.62 209.32 118.62 208.44C118.62 207.56 118.8 206.76 119.16 206.04C119.533 205.32 120.013 204.707 120.6 204.2C121.2 203.68 121.84 203.287 122.52 203.02C123.2 202.74 123.86 202.6 124.5 202.6C125.14 202.6 125.8 202.74 126.48 203.02C127.16 203.287 127.793 203.68 128.38 204.2C128.967 204.707 129.44 205.32 129.8 206.04C130.16 206.76 130.34 207.56 130.34 208.44ZM125.1 212.8C125.807 212.8 126.347 212.547 126.72 212.04C127.093 211.52 127.28 210.587 127.28 209.24C127.28 208.04 127.093 207.06 126.72 206.3C126.36 205.54 125.92 204.987 125.4 204.64C124.88 204.28 124.38 204.1 123.9 204.1C123.433 204.1 123.033 204.207 122.7 204.42C122.367 204.633 122.113 205 121.94 205.52C121.767 206.027 121.68 206.733 121.68 207.64C121.68 208.453 121.787 209.18 122 209.82C122.227 210.46 122.513 211.007 122.86 211.46C123.207 211.9 123.573 212.233 123.96 212.46C124.36 212.687 124.74 212.8 125.1 212.8ZM150.04 214.26C147.987 214.26 146.273 214.167 144.9 213.98C143.527 213.793 142.44 213.487 141.64 213.06C140.84 212.633 140.267 212.073 139.92 211.38C139.573 210.687 139.4 209.84 139.4 208.84C139.4 207.547 139.607 206.433 140.02 205.5C140.433 204.567 140.993 203.853 141.7 203.36C142.42 202.853 143.227 202.6 144.12 202.6C145.333 202.6 146.427 202.733 147.4 203C148.387 203.253 149.207 203.567 149.86 203.94L148.58 206.6C147.767 205.787 147.04 205.16 146.4 204.72C145.76 204.267 145.107 204.04 144.44 204.04C144.053 204.04 143.7 204.2 143.38 204.52C143.06 204.827 142.807 205.34 142.62 206.06C142.447 206.78 142.36 207.76 142.36 209C142.36 209.893 142.62 210.64 143.14 211.24C143.66 211.84 144.487 212.36 145.62 212.8C146.767 213.227 148.267 213.64 150.12 214.04L150.04 214.26ZM160.92 217.14L163.76 212.52L158.82 203.46L162.3 202.6L164.86 210.72L169.76 202.68H170.04L164.28 218.58L160.92 217.14ZM183.2 214L182.74 205.28L179.16 205.94V202.7L190.36 203.64V203.84L186.24 204.62L185.76 214H183.2ZM210.34 208.44C210.34 209.32 210.16 210.12 209.8 210.84C209.44 211.547 208.967 212.153 208.38 212.66C207.793 213.167 207.16 213.56 206.48 213.84C205.8 214.107 205.14 214.24 204.5 214.24C203.86 214.24 203.2 214.107 202.52 213.84C201.84 213.56 201.2 213.167 200.6 212.66C200.013 212.153 199.533 211.547 199.16 210.84C198.8 210.12 198.62 209.32 198.62 208.44C198.62 207.56 198.8 206.76 199.16 206.04C199.533 205.32 200.013 204.707 200.6 204.2C201.2 203.68 201.84 203.287 202.52 203.02C203.2 202.74 203.86 202.6 204.5 202.6C205.14 202.6 205.8 202.74 206.48 203.02C207.16 203.287 207.793 203.68 208.38 204.2C208.967 204.707 209.44 205.32 209.8 206.04C210.16 206.76 210.34 207.56 210.34 208.44ZM205.1 212.8C205.807 212.8 206.347 212.547 206.72 212.04C207.093 211.52 207.28 210.587 207.28 209.24C207.28 208.04 207.093 207.06 206.72 206.3C206.36 205.54 205.92 204.987 205.4 204.64C204.88 204.28 204.38 204.1 203.9 204.1C203.433 204.1 203.033 204.207 202.7 204.42C202.367 204.633 202.113 205 201.94 205.52C201.767 206.027 201.68 206.733 201.68 207.64C201.68 208.453 201.787 209.18 202 209.82C202.227 210.46 202.513 211.007 202.86 211.46C203.207 211.9 203.573 212.233 203.96 212.46C204.36 212.687 204.74 212.8 205.1 212.8ZM226.3 214L226.14 210.72C225.727 210.987 225.28 211.207 224.8 211.38C224.32 211.54 223.867 211.62 223.44 211.62C222.387 211.62 221.56 211.26 220.96 210.54C220.373 209.82 220.04 208.887 219.96 207.74L219.64 202.86H223.06L222.76 207.58C222.76 207.647 222.753 207.713 222.74 207.78C222.74 207.833 222.74 207.893 222.74 207.96C222.74 208.52 222.867 208.92 223.12 209.16C223.387 209.387 223.827 209.5 224.44 209.5C224.667 209.5 224.92 209.467 225.2 209.4C225.48 209.333 225.767 209.233 226.06 209.1L225.78 202.84H229.28L228.76 214H226.3ZM246.82 214L246.56 208.58L242.48 209.7L242.28 214H239.82L239.3 202.86H242.8L242.6 207.02L246.54 208.18L246.3 202.86H249.8L249.28 214H246.82ZM270.3 212.4C269.687 212.973 269.147 213.427 268.68 213.76C268.213 214.093 267.793 214.26 267.42 214.26C267.127 214.26 266.86 214.147 266.62 213.92C266.393 213.68 266.18 213.3 265.98 212.78C265.567 213.14 265.06 213.447 264.46 213.7C263.86 213.94 263.213 214.1 262.52 214.18C262.307 214.207 262.1 214.227 261.9 214.24C261.7 214.253 261.507 214.26 261.32 214.26C259.44 214.26 258.5 213.587 258.5 212.24C258.5 212.08 258.513 211.913 258.54 211.74C258.567 211.567 258.607 211.38 258.66 211.18C258.78 210.74 259.02 210.347 259.38 210C259.753 209.64 260.2 209.32 260.72 209.04C261.24 208.747 261.773 208.48 262.32 208.24C262.867 207.987 263.373 207.753 263.84 207.54C264.32 207.313 264.707 207.093 265 206.88C265.307 206.667 265.46 206.453 265.46 206.24C265.46 205.653 265.387 205.26 265.24 205.06C265.093 204.847 264.813 204.74 264.4 204.74C264.107 204.74 263.653 204.767 263.04 204.82C262.427 204.873 261.753 204.953 261.02 205.06C260.287 205.167 259.587 205.307 258.92 205.48L258.82 205.28C259.18 204.933 259.64 204.6 260.2 204.28C260.773 203.96 261.38 203.673 262.02 203.42C262.673 203.167 263.32 202.967 263.96 202.82C264.6 202.673 265.18 202.6 265.7 202.6C266.527 202.6 267.14 202.687 267.54 202.86C267.953 203.02 268.227 203.347 268.36 203.84C268.507 204.32 268.58 205.047 268.58 206.02V211.08C268.58 211.56 268.62 211.907 268.7 212.12C268.793 212.32 269 212.42 269.32 212.42C269.427 212.42 269.553 212.407 269.7 212.38C269.86 212.353 270.033 212.32 270.22 212.28L270.3 212.4ZM265.62 207.98C265.327 208.233 264.933 208.507 264.44 208.8C263.96 209.08 263.493 209.387 263.04 209.72C262.587 210.04 262.253 210.4 262.04 210.8C261.853 211.173 261.76 211.5 261.76 211.78C261.76 212.047 261.84 212.267 262 212.44C262.173 212.613 262.413 212.7 262.72 212.7C262.787 212.7 262.853 212.7 262.92 212.7C263 212.687 263.073 212.673 263.14 212.66C263.407 212.593 263.713 212.5 264.06 212.38C264.407 212.26 264.74 212.12 265.06 211.96C265.38 211.8 265.607 211.64 265.74 211.48L265.62 207.98ZM286.34 214L286.04 209.26L280.04 214.26H279.92L281.92 210.26C281.027 210.127 280.3 209.813 279.74 209.32C279.18 208.827 278.9 208.113 278.9 207.18C278.9 206.06 279.253 205.167 279.96 204.5C280.68 203.833 281.793 203.353 283.3 203.06C284.82 202.753 286.773 202.6 289.16 202.6L288.56 214H286.34ZM285.7 203.76C284.673 203.96 283.88 204.24 283.32 204.6C282.773 204.96 282.4 205.353 282.2 205.78C282 206.193 281.9 206.607 281.9 207.02C281.9 207.473 282.053 207.847 282.36 208.14C282.667 208.433 283.113 208.58 283.7 208.58C284.087 208.58 284.467 208.54 284.84 208.46C285.213 208.367 285.587 208.233 285.96 208.06L285.7 203.76ZM53.698 252L53.126 241.132L48.004 239.988L47.458 252H44.26L43.584 237.518H48.134L48.03 239.598L57.494 237.258L56.896 252H53.698ZM84.092 244.772C84.092 245.916 83.858 246.956 83.39 247.892C82.922 248.811 82.3067 249.599 81.544 250.258C80.7813 250.917 79.958 251.428 79.074 251.792C78.19 252.139 77.332 252.312 76.5 252.312C75.668 252.312 74.81 252.139 73.926 251.792C73.042 251.428 72.21 250.917 71.43 250.258C70.6673 249.599 70.0433 248.811 69.558 247.892C69.09 246.956 68.856 245.916 68.856 244.772C68.856 243.628 69.09 242.588 69.558 241.652C70.0433 240.716 70.6673 239.919 71.43 239.26C72.21 238.584 73.042 238.073 73.926 237.726C74.81 237.362 75.668 237.18 76.5 237.18C77.332 237.18 78.19 237.362 79.074 237.726C79.958 238.073 80.7813 238.584 81.544 239.26C82.3067 239.919 82.922 240.716 83.39 241.652C83.858 242.588 84.092 243.628 84.092 244.772ZM77.28 250.44C78.1987 250.44 78.9007 250.111 79.386 249.452C79.8713 248.776 80.114 247.563 80.114 245.812C80.114 244.252 79.8713 242.978 79.386 241.99C78.918 241.002 78.346 240.283 77.67 239.832C76.994 239.364 76.344 239.13 75.72 239.13C75.1133 239.13 74.5933 239.269 74.16 239.546C73.7267 239.823 73.3973 240.3 73.172 240.976C72.9467 241.635 72.834 242.553 72.834 243.732C72.834 244.789 72.9727 245.734 73.25 246.566C73.5447 247.398 73.9173 248.109 74.368 248.698C74.8187 249.27 75.2953 249.703 75.798 249.998C76.318 250.293 76.812 250.44 77.28 250.44ZM109.26 254.548L107.648 251.922L97.404 250.882L97.118 254.288H94.102L93.4 248.438H96.936C97.2307 247.71 97.4387 247.095 97.56 246.592C97.6813 246.089 97.742 245.613 97.742 245.162C97.742 245.058 97.742 244.954 97.742 244.85C97.742 244.746 97.7333 244.633 97.716 244.512L97.04 237.518H101.59L101.434 239.208L108.766 237.258L108.194 248.49L111.21 248.23L109.598 254.548H109.26ZM104.398 241.132L101.33 240.3L100.914 244.668C100.862 245.205 100.732 245.708 100.524 246.176C100.316 246.644 99.9693 247.138 99.484 247.658C98.9987 248.161 98.314 248.733 97.43 249.374L104.944 248.75L104.398 241.132ZM135.26 254.548L133.648 251.922L123.404 250.882L123.118 254.288H120.102L119.4 248.438H122.936C123.231 247.71 123.439 247.095 123.56 246.592C123.681 246.089 123.742 245.613 123.742 245.162C123.742 245.058 123.742 244.954 123.742 244.85C123.742 244.746 123.733 244.633 123.716 244.512L123.04 237.518H127.59L127.434 239.208L134.766 237.258L134.194 248.49L137.21 248.23L135.598 254.548H135.26ZM130.398 241.132L127.33 240.3L126.914 244.668C126.862 245.205 126.732 245.708 126.524 246.176C126.316 246.644 125.969 247.138 125.484 247.658C124.999 248.161 124.314 248.733 123.43 249.374L130.944 248.75L130.398 241.132ZM161.078 252.338C158.409 252.338 156.181 252.217 154.396 251.974C152.611 251.731 151.198 251.333 150.158 250.778C149.118 250.223 148.373 249.495 147.922 248.594C147.471 247.693 147.246 246.592 147.246 245.292C147.246 243.611 147.558 242.163 148.182 240.95C148.806 239.737 149.621 238.809 150.626 238.168C151.649 237.509 152.723 237.18 153.85 237.18C154.751 237.18 155.661 237.319 156.58 237.596C157.499 237.873 158.357 238.324 159.154 238.948C159.951 239.572 160.601 240.395 161.104 241.418C161.607 242.423 161.893 243.663 161.962 245.136L150.912 246.384C151.068 247.337 151.501 248.152 152.212 248.828C152.94 249.487 154.032 250.067 155.488 250.57C156.944 251.073 158.842 251.558 161.182 252.026L161.078 252.338ZM157.62 243.004C157.533 242.328 157.334 241.687 157.022 241.08C156.71 240.473 156.311 239.988 155.826 239.624C155.341 239.243 154.803 239.052 154.214 239.052C153.521 239.052 152.923 239.217 152.42 239.546C151.917 239.875 151.527 240.508 151.25 241.444C150.973 242.363 150.834 243.715 150.834 245.5C150.834 245.587 150.834 245.673 150.834 245.76C150.834 245.829 150.843 245.907 150.86 245.994L157.62 243.004ZM174.65 257.512L173.766 237.518H178.316L178.238 239.416C178.931 238.827 179.755 238.307 180.708 237.856C181.661 237.405 182.589 237.18 183.49 237.18C185.137 237.18 186.359 237.691 187.156 238.714C187.971 239.719 188.378 241.149 188.378 243.004C188.378 244.824 187.945 246.384 187.078 247.684C186.211 248.967 184.981 249.981 183.386 250.726C181.791 251.471 179.911 251.957 177.744 252.182L177.536 257.512H174.65ZM177.796 251.038C179.512 250.449 180.855 249.747 181.826 248.932C182.797 248.117 183.481 247.225 183.88 246.254C184.279 245.283 184.478 244.269 184.478 243.212C184.478 242.033 184.279 241.184 183.88 240.664C183.481 240.144 182.901 239.884 182.138 239.884C181.445 239.884 180.786 239.936 180.162 240.04C179.555 240.144 178.897 240.335 178.186 240.612L177.796 251.038ZM216.614 252.338L209.49 246.15L208.346 247.502L208.138 252H204.94L204.732 247.502L203.588 246.15L196.464 252.338L196.204 252.312L201.456 243.628L196.698 237.96L200.962 237.18L204.602 244.512L204.264 237.518H208.814L208.476 244.512L212.116 237.18L216.38 237.96L211.622 243.628L216.874 252.338H216.614ZM239.676 252.338L231.824 245.916L230.264 247.606L230.03 252H226.832L226.286 237.492H230.836L230.446 244.46L234.658 237.18L239.182 237.96L234.372 243.134L239.936 252.338H239.676ZM266.04 249.92C265.243 250.665 264.541 251.255 263.934 251.688C263.327 252.121 262.781 252.338 262.296 252.338C261.915 252.338 261.568 252.191 261.256 251.896C260.961 251.584 260.684 251.09 260.424 250.414C259.887 250.882 259.228 251.281 258.448 251.61C257.668 251.922 256.827 252.13 255.926 252.234C255.649 252.269 255.38 252.295 255.12 252.312C254.86 252.329 254.609 252.338 254.366 252.338C251.922 252.338 250.7 251.463 250.7 249.712C250.7 249.504 250.717 249.287 250.752 249.062C250.787 248.837 250.839 248.594 250.908 248.334C251.064 247.762 251.376 247.251 251.844 246.8C252.329 246.332 252.91 245.916 253.586 245.552C254.262 245.171 254.955 244.824 255.666 244.512C256.377 244.183 257.035 243.879 257.642 243.602C258.266 243.307 258.769 243.021 259.15 242.744C259.549 242.467 259.748 242.189 259.748 241.912C259.748 241.149 259.653 240.638 259.462 240.378C259.271 240.101 258.907 239.962 258.37 239.962C257.989 239.962 257.399 239.997 256.602 240.066C255.805 240.135 254.929 240.239 253.976 240.378C253.023 240.517 252.113 240.699 251.246 240.924L251.116 240.664C251.584 240.213 252.182 239.78 252.91 239.364C253.655 238.948 254.444 238.575 255.276 238.246C256.125 237.917 256.966 237.657 257.798 237.466C258.63 237.275 259.384 237.18 260.06 237.18C261.135 237.18 261.932 237.293 262.452 237.518C262.989 237.726 263.345 238.151 263.518 238.792C263.709 239.416 263.804 240.361 263.804 241.626V248.204C263.804 248.828 263.856 249.279 263.96 249.556C264.081 249.816 264.35 249.946 264.766 249.946C264.905 249.946 265.069 249.929 265.26 249.894C265.468 249.859 265.693 249.816 265.936 249.764L266.04 249.92ZM259.956 244.174C259.575 244.503 259.063 244.859 258.422 245.24C257.798 245.604 257.191 246.003 256.602 246.436C256.013 246.852 255.579 247.32 255.302 247.84C255.059 248.325 254.938 248.75 254.938 249.114C254.938 249.461 255.042 249.747 255.25 249.972C255.475 250.197 255.787 250.31 256.186 250.31C256.273 250.31 256.359 250.31 256.446 250.31C256.55 250.293 256.645 250.275 256.732 250.258C257.079 250.171 257.477 250.05 257.928 249.894C258.379 249.738 258.812 249.556 259.228 249.348C259.644 249.14 259.939 248.932 260.112 248.724L259.956 244.174Z" fill="white"/>
<g clip-path="url(#clip0_112_337)">
<path d="M144.094 143.506H138.625V148.766H144.094V143.506Z" fill="#D8D8D8"/>
<path d="M144.094 132.986H138.625V138.246H144.094V132.986Z" fill="#D8D8D8"/>
<path d="M144.094 122.465H138.625V127.725H144.094V122.465Z" fill="#D8D8D8"/>
<path d="M141.359 83.0132H135.891C135.891 85.9143 133.438 88.2735 130.422 88.2735C127.406 88.2735 124.953 85.9143 124.953 83.0132H119.484C119.484 88.8153 124.39 93.5338 130.422 93.5338C136.454 93.5338 141.359 88.8153 141.359 83.0132Z" fill="#D8D8D8"/>
<path d="M116.75 69.8627C118.26 69.8627 119.484 68.6851 119.484 67.2325C119.484 65.78 118.26 64.6024 116.75 64.6024C115.24 64.6024 114.016 65.78 114.016 67.2325C114.016 68.6851 115.24 69.8627 116.75 69.8627Z" fill="#D8D8D8"/>
<path d="M144.094 69.8627C145.604 69.8627 146.828 68.6851 146.828 67.2325C146.828 65.78 145.604 64.6024 144.094 64.6024C142.584 64.6024 141.359 65.78 141.359 67.2325C141.359 68.6851 142.584 69.8627 144.094 69.8627Z" fill="#D8D8D8"/>
<path d="M212.453 132.986H198.781V130.355C198.781 128.904 200.006 127.725 201.516 127.725H206.984C211.507 127.725 215.188 124.185 215.188 119.835V117.205H209.719V119.835C209.719 121.287 208.494 122.465 206.984 122.465H201.516C196.993 122.465 193.312 126.005 193.312 130.355V132.986H179.641C172.102 132.986 165.969 138.885 165.969 146.136V150.944C165.969 157.903 171.388 163.85 178.309 164.484C182.145 164.844 185.993 163.616 188.836 161.13C190.996 159.239 192.459 156.738 193.036 154.027H199.06C199.637 156.738 201.1 159.239 203.26 161.13C205.781 163.335 209.084 164.547 212.48 164.547C212.915 164.547 213.35 164.526 213.787 164.487C220.705 163.85 226.125 157.906 226.125 150.944V146.136C226.125 138.885 219.992 132.986 212.453 132.986ZM220.656 150.944C220.656 155.221 217.411 158.871 213.268 159.25C210.905 159.445 208.666 158.753 206.938 157.235C205.229 155.744 204.25 153.616 204.25 151.396V148.766H187.844V151.396C187.844 153.616 186.865 155.744 185.159 157.238C183.428 158.753 181.196 159.445 178.829 159.253C174.683 158.871 171.438 155.221 171.438 150.944V146.136C171.438 141.786 175.118 138.246 179.641 138.246H212.453C216.976 138.246 220.656 141.786 220.656 146.136V150.944Z" fill="#D8D8D8"/>
<path d="M215.188 143.506H209.719V148.766H215.188V143.506Z" fill="#D8D8D8"/>
<path d="M182.375 143.506H176.906V148.766H182.375V143.506Z" fill="#D8D8D8"/>
<path d="M228.859 106.684H207.769L182.375 91.4165V106.684H163.234C159.866 106.684 156.817 107.907 154.432 109.859L146.828 107.418V101.969C153.65 97.6788 158.539 90.8011 160.013 82.7923C166.3 81.7824 171.118 76.6563 171.383 70.3887C171.656 69.3051 174.172 58.8293 174.172 40.9313V37.2807L165.22 40.1528C160 20.4322 148.488 15.1009 147.977 14.8747L145.62 13.8253L142.923 18.7515C138.092 16.2187 126.52 12 103.078 12H99.5754L102.113 21.7577L88.9578 19.2249L91.6676 40.0792L81.2031 37.5621V40.9313C81.2031 57.7378 87.7164 68.2504 89.5074 70.8253C89.9723 76.8614 94.6426 81.7613 100.83 82.7844C102.299 90.7958 107.191 97.6762 114.016 101.969V107.418L86.0867 116.376C78.2609 118.883 73 125.903 73 133.838V159.287H149.562V161.917C149.562 169.168 155.696 175.068 163.234 175.068H228.859C236.398 175.068 242.531 169.168 242.531 161.917V119.835C242.531 112.584 236.398 106.684 228.859 106.684ZM160.5 77.2691V62.4589C163.675 63.5477 165.969 66.4409 165.969 69.8653C165.969 73.2897 163.675 76.1802 160.5 77.2691ZM98.0824 47.0437L95.3234 25.816L109.512 28.5435L106.589 17.2944C133.892 17.8205 142.029 24.401 142.081 24.4457L144.695 26.7944L147.832 21.0687C151.181 23.6567 157.528 30.2057 160.555 44.1033L161.181 46.9938L168.659 44.5951C168.523 51.2098 168.033 56.6226 167.516 60.6809C165.641 58.8372 163.218 57.5169 160.495 56.9803V51.4518H155.026V56.6647C145.879 56.2991 136.96 53.7374 129.09 49.1952L124.953 46.8044V51.4518C124.953 53.7479 125.289 56.0493 125.943 58.2612C119.011 56.4622 112.389 53.7584 106.201 50.1894L100.344 46.8044V56.9777C96.5348 57.7247 93.3383 60.0234 91.3969 63.1296C89.4855 59.0502 87.2625 52.6643 86.7703 44.3242L98.0824 47.0437ZM94.875 69.8627C94.875 66.4382 97.1691 63.5451 100.344 62.4562V77.2665C97.1691 76.1802 94.875 73.2871 94.875 69.8627ZM105.812 77.753V56.044C113.338 60.0628 121.423 62.9218 129.886 64.5498L135.368 65.6045L132.579 60.239C131.907 58.945 131.384 57.5774 131.023 56.1729C138.516 59.6604 146.691 61.6251 155.031 61.9276V77.753C155.031 90.8063 143.993 101.424 130.422 101.424C116.851 101.424 105.812 90.8063 105.812 77.753ZM130.422 106.684C134.283 106.684 137.963 105.956 141.359 104.675V108.98L141.357 108.991C140.104 113.828 135.606 117.205 130.422 117.205C125.243 117.205 120.745 113.83 119.484 108.988V104.675C122.88 105.956 126.561 106.684 130.422 106.684ZM100.344 154.027V132.986H94.875V154.027H78.4688V133.838C78.4688 128.17 82.2258 123.154 87.8176 121.363L115.022 112.642C117.253 117.723 122.033 121.35 127.688 122.244V148.766H133.156V122.244C138.814 121.35 143.593 117.723 145.822 112.642L150.894 114.27C150.063 115.963 149.562 117.839 149.562 119.835V154.027H100.344ZM237.062 161.917C237.062 166.267 233.382 169.807 228.859 169.807H163.234C158.712 169.807 155.031 166.267 155.031 161.917V119.835C155.031 115.485 158.712 111.945 163.234 111.945H187.844V100.911L206.2 111.945H228.859C233.382 111.945 237.062 115.485 237.062 119.835V161.917Z" fill="#D8D8D8"/>
</g>
<defs>
<linearGradient id="paint0_linear_112_337" x1="154.5" y1="43" x2="154.5" y2="280" gradientUnits="userSpaceOnUse">
<stop stop-color="#FF0000" stop-opacity="0"/>
<stop offset="1" stop-color="#8A0000" stop-opacity="0.38"/>
</linearGradient>
<clipPath id="clip0_112_337">
<rect width="175" height="175" fill="white" transform="translate(68)"/>
</clipPath>
</defs>
</svg>
