<svg width="50" height="50" viewBox="0 0 50 50" fill="none" xmlns="http://www.w3.org/2000/svg">
<path d="M46.875 39.9219H40.3125C39.5312 39.9219 38.75 39.4531 38.2812 38.8281L37.6562 37.8125C37.2656 37.3438 33.6719 33.2031 31.4844 31.875C30.625 31.4062 30.3125 31.4844 30.3125 31.4844C30.3125 31.4844 30.2344 31.7188 30.2344 31.7969V35.9375C30.2344 38.125 28.4375 39.8438 26.3281 39.8438H24.7656C24.375 39.8438 15.625 39.6875 8.67187 29.2969C3.20312 21.1719 1.40624 15.8594 0.781242 12.8125C0.624992 12.1094 0.859367 11.4062 1.24999 10.8594C1.71874 10.3125 2.34374 10 3.04687 10H8.59374C9.60937 10 10.4687 10.625 10.7812 11.6406C11.4062 13.4375 12.9687 18.0469 14.8437 21.0156C17.5781 25.5469 18.6719 25.9375 18.9844 25.9375C19.2187 25.5469 19.1406 23.9844 19.1406 22.9688C19.1406 22.5 19.1406 22.1094 19.1406 21.6406C19.1406 21.3281 19.1406 20.9375 19.1406 20.5469C19.1406 18.5938 19.2187 15.9375 18.4375 14.6875L16.875 12.4219C16.5625 11.9531 16.4844 11.3281 16.7969 10.7813C17.0312 10.2344 17.5781 9.92188 18.2031 9.92188H27.1094C28.4375 9.92188 29.4531 11.0156 29.4531 12.2656V23.5156C29.4531 23.5938 29.5312 23.6719 29.5312 23.6719C29.5312 23.6719 29.8437 23.6719 30.7031 22.8906C32.5 21.0938 34.7656 17.7344 37.0312 13.125L37.8125 11.3281C38.2031 10.4688 39.0625 9.92188 40 9.92188H45.7812C46.5625 9.92188 47.2656 10.3125 47.7344 10.9375C48.2031 11.5625 48.2812 12.4219 47.9687 13.125L47.3437 14.7656V14.8438C47.2656 15 45.1562 19.1406 42.9687 22.1875C41.25 24.5313 40.5469 25.625 40.7031 26.0156C40.8594 26.25 41.875 27.4219 42.8906 28.3594C44.7656 30.3125 47.1094 32.8125 47.9687 34.4531C48.3594 35.1562 48.75 35.7813 48.9844 36.3281C49.375 37.0313 49.375 37.8906 48.9062 38.6719C48.4375 39.5313 47.7344 39.9219 46.875 39.9219ZM30.4687 29.9219C31.0156 29.9219 31.6406 30.1562 32.3437 30.5469C34.9219 32.0312 38.8281 36.6406 38.9844 36.875L39.0625 36.9531L39.6875 37.9688C39.8437 38.2031 40.0781 38.3594 40.3906 38.3594H46.875C47.2656 38.3594 47.5 38.125 47.5781 37.9688C47.6562 37.8906 47.8125 37.5781 47.5781 37.1875C47.2656 36.6406 46.9531 36.0156 46.5625 35.3125C45.7812 33.9063 43.4375 31.4062 41.7187 29.5312C40 27.6562 39.375 27.0312 39.2187 26.6406C38.75 25.4687 39.4531 24.5313 41.7187 21.4063C43.75 18.5938 45.7031 14.7656 45.9375 14.2969L46.5625 12.6563C46.6406 12.4219 46.6406 12.1094 46.4844 11.9531C46.3281 11.7188 46.0937 11.6406 45.8594 11.6406H40.0781C39.7656 11.6406 39.4531 11.7969 39.375 12.1094L38.5937 13.9844C36.875 17.3438 34.375 21.7969 31.9531 24.2188C30.9375 25.2344 30 25.5469 29.2187 25.3125C28.2812 25 28.0469 23.9844 28.0469 23.9063C28.0469 23.8281 28.0469 23.8281 28.0469 23.75V12.4219C28.0469 11.9531 27.6562 11.6406 27.2656 11.6406H18.2031L19.7656 13.9062C20.7812 15.5469 20.7812 18.4375 20.7031 20.7031C20.7031 21.0938 20.7031 21.4062 20.7031 21.7188C20.7031 22.1094 20.7031 22.5781 20.7031 22.9688C20.7812 25.1563 20.7812 27.1875 19.375 27.5C17.8125 27.8125 16.1719 26.1719 13.5156 21.875C11.7187 18.8281 10.1562 14.5313 9.37499 12.1875C9.29687 11.875 8.98437 11.6406 8.59374 11.6406H3.12499C2.89062 11.6406 2.65624 11.7188 2.49999 11.9531C2.34374 12.1094 2.34374 12.3438 2.34374 12.5781C2.89062 15.4688 4.68749 20.5469 9.99999 28.5156C16.4844 38.2031 24.6875 38.3594 24.7656 38.3594H26.3281C27.6562 38.3594 28.6719 37.2656 28.6719 36.0156V31.875C28.6719 31.7969 28.6719 30.7031 29.5312 30.1562C29.8437 30 30.1562 29.9219 30.4687 29.9219Z" fill="white"/>
</svg>
