<svg width="50" height="50" viewBox="0 0 50 50" fill="none" xmlns="http://www.w3.org/2000/svg">
<path d="M48.5416 15.2084C48.5416 14.7917 47.9166 11.4584 46.4583 10.0001C44.5833 7.91675 42.5 7.70841 41.4583 7.70841H41.25C34.7916 7.29175 25.2083 7.29175 25 7.29175C25 7.29175 15.2083 7.29175 8.74996 7.70841H8.54163C7.49996 7.70841 5.41663 7.91675 3.54163 10.0001C2.08329 11.6667 1.45829 15.0001 1.45829 15.4167C1.45829 15.6251 1.04163 19.3751 1.04163 23.3334V26.8751C1.04163 30.8334 1.45829 34.5834 1.45829 34.7918C1.45829 35.2084 2.08329 38.5418 3.54163 40.0001C5.20829 41.8751 7.29163 42.0834 8.54163 42.2917C8.74996 42.2917 8.95829 42.2917 9.16663 42.2917C12.9166 42.7084 24.375 42.7084 24.7916 42.7084C24.7916 42.7084 34.5833 42.7084 41.0416 42.2917H41.25C42.2916 42.0834 44.375 41.8751 46.25 40.0001C47.7083 38.3334 48.3333 35.0001 48.3333 34.5834C48.3333 34.3751 48.75 30.6251 48.75 26.6667V23.1251C48.9583 19.3751 48.5416 15.4167 48.5416 15.2084ZM33.125 25.4167L20.625 32.0834C20.4166 32.0834 20.4166 32.2917 20.2083 32.2917C20 32.2917 19.7916 32.2917 19.7916 32.0834C19.5833 31.8751 19.375 31.6667 19.375 31.2501V17.7084C19.375 17.2917 19.5833 17.0834 19.7916 16.8751C20 16.6667 20.4166 16.6667 20.8333 16.8751L33.3333 23.5417C33.75 23.7501 33.9583 23.9584 33.9583 24.3751C33.9583 24.7917 33.5416 25.2084 33.125 25.4167Z" fill="white"/>
</svg>
