<svg width="309" height="304" viewBox="0 0 309 304" fill="none" xmlns="http://www.w3.org/2000/svg">
<path d="M0 23H269C291.091 23 309 40.9086 309 63V220C309 242.091 291.091 260 269 260H40C17.9086 260 0 242.091 0 220V23Z" fill="url(#paint0_linear_112_335)"/>
<path d="M63.552 204.52C62.564 204.52 61.524 204.277 60.432 203.792C59.3573 203.289 58.3433 202.57 57.39 201.634C56.4367 200.698 55.6653 199.571 55.076 198.254C54.4867 196.937 54.192 195.455 54.192 193.808C54.192 192.525 54.3827 191.338 54.764 190.246C55.1627 189.137 55.6913 188.149 56.35 187.282C57.0087 186.415 57.7453 185.679 58.56 185.072C59.3747 184.448 60.2067 183.98 61.056 183.668C61.9227 183.339 62.7547 183.174 63.552 183.174C64.332 183.174 65.1467 183.339 65.996 183.668C66.8627 183.997 67.6947 184.474 68.492 185.098C69.3067 185.705 70.0433 186.441 70.702 187.308C71.3607 188.175 71.8807 189.154 72.262 190.246C72.6433 191.338 72.834 192.525 72.834 193.808C72.834 195.455 72.5393 196.937 71.95 198.254C71.3607 199.571 70.598 200.698 69.662 201.634C68.726 202.57 67.7207 203.289 66.646 203.792C65.5713 204.277 64.54 204.52 63.552 204.52ZM64.592 202.284C65.4067 202.284 66.126 202.015 66.75 201.478C67.374 200.941 67.8593 200.195 68.206 199.242C68.57 198.271 68.752 197.153 68.752 195.888C68.752 194.137 68.5527 192.612 68.154 191.312C67.7553 189.995 67.2353 188.903 66.594 188.036C65.9527 187.169 65.268 186.519 64.54 186.086C63.8293 185.653 63.1533 185.436 62.512 185.436C61.7147 185.436 60.9953 185.705 60.354 186.242C59.7127 186.762 59.2013 187.49 58.82 188.426C58.456 189.362 58.274 190.463 58.274 191.728C58.274 193.583 58.4733 195.177 58.872 196.512C59.288 197.847 59.8167 198.939 60.458 199.788C61.1167 200.637 61.81 201.27 62.538 201.686C63.266 202.085 63.9507 202.284 64.592 202.284ZM87.81 204L87.212 192.664L82.558 193.522V189.31L97.118 190.532V190.792L91.762 191.806L91.138 204H87.81ZM118.698 204L118.126 193.132L112.978 191.91L112.458 199.424C112.423 200.031 112.241 200.629 111.912 201.218C111.6 201.79 111.071 202.353 110.326 202.908C109.581 203.463 108.541 204.017 107.206 204.572L107.102 204.364C107.969 203.272 108.541 202.362 108.818 201.634C109.113 200.889 109.26 200.213 109.26 199.606V199.268L108.584 189.518H113.134L113.004 191.598L122.494 189.258L121.896 204H118.698ZM146.804 204.338L144.438 195.342L136.352 204.338H135.91L134.532 189.518H139.238L138.198 199.528L144.36 189.518H148.624L147.22 204.338H146.804ZM169.84 204L169.632 199.736C169.095 200.083 168.514 200.369 167.89 200.594C167.266 200.802 166.677 200.906 166.122 200.906C164.753 200.906 163.678 200.438 162.898 199.502C162.135 198.566 161.702 197.353 161.598 195.862L161.182 189.518H165.628L165.238 195.654C165.238 195.741 165.229 195.827 165.212 195.914C165.212 195.983 165.212 196.061 165.212 196.148C165.212 196.876 165.377 197.396 165.706 197.708C166.053 198.003 166.625 198.15 167.422 198.15C167.717 198.15 168.046 198.107 168.41 198.02C168.774 197.933 169.147 197.803 169.528 197.63L169.164 189.492H173.714L173.038 204H169.84ZM196.516 204L196.178 196.954L190.874 198.41L190.614 204H187.416L186.74 189.518H191.29L191.03 194.926L196.152 196.434L195.84 189.518H200.39L199.714 204H196.516ZM225.506 204L224.856 189.518H229.146L228.496 204H225.506ZM210.582 189.518H214.716L214.56 194.432C215.149 194.345 215.695 194.276 216.198 194.224C216.718 194.172 217.195 194.146 217.628 194.146C218.772 194.146 219.708 194.276 220.436 194.536C221.181 194.779 221.762 195.108 222.178 195.524C222.594 195.94 222.88 196.391 223.036 196.876C223.209 197.361 223.296 197.829 223.296 198.28C223.296 199.147 223.114 199.953 222.75 200.698C222.403 201.426 221.779 202.059 220.878 202.596C219.994 203.133 218.755 203.558 217.16 203.87C215.565 204.165 213.529 204.312 211.05 204.312L210.582 189.518ZM214.43 202.934C215.747 202.639 216.735 202.267 217.394 201.816C218.053 201.365 218.495 200.845 218.72 200.256C218.945 199.649 219.058 199.008 219.058 198.332C219.058 197.604 218.85 197.041 218.434 196.642C218.018 196.226 217.169 196.018 215.886 196.018C215.678 196.018 215.461 196.018 215.236 196.018C215.011 196.018 214.777 196.035 214.534 196.07L214.43 202.934ZM252.078 204.338C249.409 204.338 247.181 204.217 245.396 203.974C243.611 203.731 242.198 203.333 241.158 202.778C240.118 202.223 239.373 201.495 238.922 200.594C238.471 199.693 238.246 198.592 238.246 197.292C238.246 195.611 238.558 194.163 239.182 192.95C239.806 191.737 240.621 190.809 241.626 190.168C242.649 189.509 243.723 189.18 244.85 189.18C245.751 189.18 246.661 189.319 247.58 189.596C248.499 189.873 249.357 190.324 250.154 190.948C250.951 191.572 251.601 192.395 252.104 193.418C252.607 194.423 252.893 195.663 252.962 197.136L241.912 198.384C242.068 199.337 242.501 200.152 243.212 200.828C243.94 201.487 245.032 202.067 246.488 202.57C247.944 203.073 249.842 203.558 252.182 204.026L252.078 204.338ZM248.62 195.004C248.533 194.328 248.334 193.687 248.022 193.08C247.71 192.473 247.311 191.988 246.826 191.624C246.341 191.243 245.803 191.052 245.214 191.052C244.521 191.052 243.923 191.217 243.42 191.546C242.917 191.875 242.527 192.508 242.25 193.444C241.973 194.363 241.834 195.715 241.834 197.5C241.834 197.587 241.834 197.673 241.834 197.76C241.834 197.829 241.843 197.907 241.86 197.994L248.62 195.004ZM89.552 242.52C88.564 242.52 87.524 242.277 86.432 241.792C85.3573 241.289 84.3433 240.57 83.39 239.634C82.4367 238.698 81.6653 237.571 81.076 236.254C80.4867 234.937 80.192 233.455 80.192 231.808C80.192 230.525 80.3827 229.338 80.764 228.246C81.1627 227.137 81.6913 226.149 82.35 225.282C83.0087 224.415 83.7453 223.679 84.56 223.072C85.3747 222.448 86.2067 221.98 87.056 221.668C87.9227 221.339 88.7547 221.174 89.552 221.174C90.332 221.174 91.1467 221.339 91.996 221.668C92.8627 221.997 93.6947 222.474 94.492 223.098C95.3067 223.705 96.0433 224.441 96.702 225.308C97.3607 226.175 97.8807 227.154 98.262 228.246C98.6433 229.338 98.834 230.525 98.834 231.808C98.834 233.455 98.5393 234.937 97.95 236.254C97.3607 237.571 96.598 238.698 95.662 239.634C94.726 240.57 93.7207 241.289 92.646 241.792C91.5713 242.277 90.54 242.52 89.552 242.52ZM90.592 240.284C91.4067 240.284 92.126 240.015 92.75 239.478C93.374 238.941 93.8593 238.195 94.206 237.242C94.57 236.271 94.752 235.153 94.752 233.888C94.752 232.137 94.5527 230.612 94.154 229.312C93.7553 227.995 93.2353 226.903 92.594 226.036C91.9527 225.169 91.268 224.519 90.54 224.086C89.8293 223.653 89.1533 223.436 88.512 223.436C87.7147 223.436 86.9953 223.705 86.354 224.242C85.7127 224.762 85.2013 225.49 84.82 226.426C84.456 227.362 84.274 228.463 84.274 229.728C84.274 231.583 84.4733 233.177 84.872 234.512C85.288 235.847 85.8167 236.939 86.458 237.788C87.1167 238.637 87.81 239.27 88.538 239.686C89.266 240.085 89.9507 240.284 90.592 240.284ZM113.81 242L113.212 230.664L108.558 231.522V227.31L123.118 228.532V228.792L117.762 229.806L117.138 242H113.81ZM137.21 233.55C139.065 233.151 140.477 232.761 141.448 232.38C142.436 231.981 142.93 231.522 142.93 231.002C142.93 230.43 142.739 230.031 142.358 229.806C141.994 229.581 141.569 229.468 141.084 229.468C140.685 229.468 140.209 229.546 139.654 229.702C139.099 229.841 138.553 230.066 138.016 230.378C137.479 230.673 137.037 231.071 136.69 231.574L134.584 229.338C135.364 228.558 136.291 228.003 137.366 227.674C138.458 227.345 139.767 227.18 141.292 227.18C142.315 227.18 143.242 227.371 144.074 227.752C144.923 228.133 145.599 228.601 146.102 229.156C146.605 229.693 146.856 230.231 146.856 230.768C146.856 231.548 146.57 232.224 145.998 232.796C145.426 233.368 144.481 233.758 143.164 233.966C144.117 233.983 144.923 234.157 145.582 234.486C146.241 234.815 146.743 235.249 147.09 235.786C147.437 236.306 147.61 236.869 147.61 237.476C147.61 238.377 147.324 239.192 146.752 239.92C146.18 240.648 145.365 241.229 144.308 241.662C143.251 242.095 141.994 242.312 140.538 242.312C140.174 242.312 139.689 242.243 139.082 242.104C138.475 241.983 137.834 241.792 137.158 241.532C136.482 241.255 135.841 240.917 135.234 240.518C134.627 240.102 134.133 239.617 133.752 239.062L133.83 238.88C134.506 239.227 135.217 239.513 135.962 239.738C136.707 239.963 137.427 240.128 138.12 240.232C138.813 240.319 139.403 240.362 139.888 240.362C140.027 240.362 140.148 240.362 140.252 240.362C140.356 240.362 140.451 240.353 140.538 240.336C141.526 240.197 142.263 239.868 142.748 239.348C143.251 238.811 143.502 238.143 143.502 237.346C143.502 237.103 143.407 236.843 143.216 236.566C143.025 236.271 142.722 236.029 142.306 235.838C141.907 235.63 141.379 235.526 140.72 235.526C140.373 235.526 139.975 235.569 139.524 235.656C139.091 235.743 138.614 235.881 138.094 236.072L137.21 233.55ZM173.506 242L172.856 227.518H177.146L176.496 242H173.506ZM158.582 227.518H162.716L162.56 232.432C163.149 232.345 163.695 232.276 164.198 232.224C164.718 232.172 165.195 232.146 165.628 232.146C166.772 232.146 167.708 232.276 168.436 232.536C169.181 232.779 169.762 233.108 170.178 233.524C170.594 233.94 170.88 234.391 171.036 234.876C171.209 235.361 171.296 235.829 171.296 236.28C171.296 237.147 171.114 237.953 170.75 238.698C170.403 239.426 169.779 240.059 168.878 240.596C167.994 241.133 166.755 241.558 165.16 241.87C163.565 242.165 161.529 242.312 159.05 242.312L158.582 227.518ZM162.43 240.934C163.747 240.639 164.735 240.267 165.394 239.816C166.053 239.365 166.495 238.845 166.72 238.256C166.945 237.649 167.058 237.008 167.058 236.332C167.058 235.604 166.85 235.041 166.434 234.642C166.018 234.226 165.169 234.018 163.886 234.018C163.678 234.018 163.461 234.018 163.236 234.018C163.011 234.018 162.777 234.035 162.534 234.07L162.43 240.934ZM187.182 227.518H191.264L191.238 228.48C191.498 228.324 191.862 228.194 192.33 228.09C192.815 227.969 193.335 227.865 193.89 227.778C194.445 227.691 194.965 227.631 195.45 227.596C195.935 227.544 196.308 227.518 196.568 227.518C197.937 227.518 198.934 227.787 199.558 228.324C200.199 228.844 200.52 229.503 200.52 230.3C200.52 230.369 200.52 230.439 200.52 230.508C200.52 230.577 200.511 230.655 200.494 230.742C200.425 231.314 200.113 231.895 199.558 232.484C199.021 233.056 198.163 233.593 196.984 234.096C198.371 234.096 199.428 234.391 200.156 234.98C200.884 235.552 201.248 236.245 201.248 237.06C201.248 238.1 200.823 239.019 199.974 239.816C199.125 240.596 197.721 241.211 195.762 241.662C193.803 242.095 191.169 242.312 187.858 242.312L187.182 227.518ZM196.62 230.638C196.62 229.997 196.126 229.676 195.138 229.676C194.566 229.676 193.916 229.719 193.188 229.806C192.477 229.893 191.819 230.014 191.212 230.17L191.108 234.2C193.067 233.68 194.453 233.117 195.268 232.51C196.1 231.903 196.551 231.34 196.62 230.82V230.638ZM190.978 240.934C193.093 240.483 194.627 239.911 195.58 239.218C196.533 238.525 197.01 237.823 197.01 237.112C197.01 236.765 196.715 236.453 196.126 236.176C195.554 235.899 194.531 235.76 193.058 235.76C192.503 235.76 191.845 235.786 191.082 235.838L190.978 240.934ZM225.506 242L224.856 227.518H229.146L228.496 242H225.506ZM210.582 227.518H214.716L214.56 232.432C215.149 232.345 215.695 232.276 216.198 232.224C216.718 232.172 217.195 232.146 217.628 232.146C218.772 232.146 219.708 232.276 220.436 232.536C221.181 232.779 221.762 233.108 222.178 233.524C222.594 233.94 222.88 234.391 223.036 234.876C223.209 235.361 223.296 235.829 223.296 236.28C223.296 237.147 223.114 237.953 222.75 238.698C222.403 239.426 221.779 240.059 220.878 240.596C219.994 241.133 218.755 241.558 217.16 241.87C215.565 242.165 213.529 242.312 211.05 242.312L210.582 227.518ZM214.43 240.934C215.747 240.639 216.735 240.267 217.394 239.816C218.053 239.365 218.495 238.845 218.72 238.256C218.945 237.649 219.058 237.008 219.058 236.332C219.058 235.604 218.85 235.041 218.434 234.642C218.018 234.226 217.169 234.018 215.886 234.018C215.678 234.018 215.461 234.018 215.236 234.018C215.011 234.018 214.777 234.035 214.534 234.07L214.43 240.934Z" fill="white"/>
<g clip-path="url(#clip0_112_335)">
<path d="M153.865 33.9389L123.802 50.5489C122.575 51.2283 121.686 52.3547 121.329 53.6808C120.972 55.007 121.177 56.4246 121.898 57.6228L132.114 74.5537C132.838 75.7504 134.019 76.6286 135.397 76.9959C136.776 77.3631 138.24 77.1893 139.468 76.5126L140.911 75.7154L143.244 79.5816C143.522 80.0441 143.936 80.4179 144.432 80.655C144.928 80.8921 145.483 80.9816 146.027 80.9121C146.571 80.8425 147.078 80.6171 147.483 80.2648C147.888 79.9124 148.173 79.4493 148.3 78.9349L149.906 72.5059C150.068 71.8607 150.363 71.2557 150.774 70.7267C151.185 70.1976 151.702 69.7551 152.296 69.4253L169.531 59.9026C170.758 59.2232 171.647 58.0968 172.004 56.7707C172.361 55.4445 172.156 54.0269 171.435 52.8287L161.219 35.8977C160.495 34.7011 159.314 33.8228 157.936 33.4556C156.557 33.0884 155.093 33.2622 153.865 33.9389ZM168.47 54.4667C168.73 54.8975 168.803 55.4072 168.675 55.884C168.547 56.3607 168.227 56.7657 167.786 57.01L150.55 66.5327C149.559 67.0832 148.695 67.8218 148.01 68.7049C147.325 69.5881 146.832 70.598 146.56 71.6749L145.35 76.5214L143.576 73.5813C143.192 72.9464 142.566 72.4804 141.834 72.2855C141.103 72.0907 140.326 72.1829 139.674 72.5419L137.723 73.6201C137.281 73.8634 136.755 73.9259 136.259 73.7939C135.764 73.6618 135.339 73.3461 135.079 72.9158L124.863 55.9848C124.603 55.554 124.53 55.0443 124.658 54.5675C124.787 54.0907 125.106 53.6857 125.547 53.4415L155.61 36.8315C156.052 36.5881 156.578 36.5257 157.074 36.6577C157.57 36.7897 157.994 37.1055 158.254 37.5358L168.47 54.4667Z" fill="#D8D8D8"/>
<path d="M171.596 130.992L146.291 145.016L148.045 147.932L173.35 133.908L171.596 130.992Z" fill="#D8D8D8"/>
<path d="M182.61 116.942L142.96 138.93L144.715 141.85L184.365 119.862L182.61 116.942Z" fill="#D8D8D8"/>
<path d="M186.184 122.892L176.051 128.498L177.803 131.405L187.936 125.799L186.184 122.892Z" fill="#D8D8D8"/>
<path d="M138.691 89.5658C135.392 91.3885 132.743 94.1249 131.079 97.4287C129.415 100.733 128.81 104.456 129.342 108.127C129.874 111.798 131.518 115.253 134.067 118.055C136.616 120.856 139.954 122.878 143.66 123.865C147.367 124.853 151.274 124.76 154.889 123.601C158.504 122.441 161.663 120.266 163.968 117.35C166.273 114.434 167.619 110.909 167.837 107.22C168.055 103.53 167.135 99.8434 165.193 96.6245C163.903 94.4873 162.194 92.6094 160.165 91.0979C158.135 89.5865 155.824 88.4712 153.363 87.8158C150.902 87.1603 148.34 86.9775 145.822 87.2778C143.305 87.578 140.882 88.3555 138.691 89.5658ZM138.905 107.328C138.657 106.917 138.54 106.445 138.567 105.974C138.595 105.503 138.767 105.052 139.062 104.68C139.356 104.307 139.76 104.029 140.222 103.881C140.684 103.733 141.183 103.721 141.657 103.847C142.13 103.973 142.557 104.232 142.882 104.59C143.208 104.948 143.418 105.389 143.486 105.858C143.554 106.327 143.477 106.803 143.264 107.225C143.052 107.647 142.713 107.997 142.292 108.23C142.012 108.384 141.702 108.484 141.38 108.522C141.059 108.561 140.731 108.537 140.417 108.453C140.102 108.37 139.807 108.227 139.548 108.034C139.288 107.841 139.07 107.601 138.905 107.328ZM153.984 114.329C148.498 117.36 144.53 114.779 143.199 112.991L145.978 111.081L145.978 111.081C146.401 111.554 146.938 111.92 147.54 112.146C148.887 112.655 150.469 112.417 152.24 111.439C154.011 110.46 155.018 109.268 155.23 107.897C155.328 107.278 155.262 106.642 155.038 106.049L158.166 104.722C159.118 106.72 159.47 111.298 153.984 114.329L153.984 114.329ZM153.783 101.881C153.362 102.114 152.876 102.219 152.388 102.184C151.899 102.15 151.43 101.976 151.04 101.685C150.649 101.394 150.354 100.999 150.193 100.55C150.032 100.102 150.011 99.6188 150.134 99.1633C150.257 98.7078 150.517 98.2999 150.882 97.9912C151.247 97.6825 151.7 97.4869 152.185 97.4292C152.669 97.3714 153.163 97.454 153.604 97.6666C154.044 97.8792 154.412 98.2122 154.66 98.6235C154.993 99.175 155.087 99.828 154.923 100.439C154.759 101.05 154.349 101.568 153.784 101.881L153.783 101.881Z" fill="#D8D8D8"/>
<path d="M147.157 47.3724C146.56 47.6967 146.044 48.1421 145.643 48.6786C145.242 49.2151 144.967 49.8303 144.835 50.4827C144.815 50.5728 144.776 50.6575 144.72 50.7314C144.664 50.8053 144.592 50.8668 144.509 50.9119C144.426 50.957 144.335 50.9847 144.24 50.9932C144.145 51.0018 144.048 50.9909 143.957 50.9614C143.288 50.7419 142.581 50.665 141.883 50.736C141.186 50.8071 140.515 51.0245 139.918 51.373C137.717 52.6351 136.945 55.3362 138.199 57.3658C140.285 60.7414 146.634 61.284 149.447 61.3548C149.869 61.3638 150.284 61.2648 150.649 61.0678C151.014 60.8707 151.318 60.5828 151.528 60.2332C152.915 57.904 155.657 52.4614 153.486 48.8639C152.24 46.7977 149.406 46.13 147.157 47.3724Z" fill="#D8D8D8"/>
<path d="M200.23 127.327C200.614 127.965 200.724 128.719 200.534 129.425C200.344 130.131 199.87 130.73 199.217 131.091L147.233 159.823C146.58 160.184 145.801 160.277 145.068 160.081C144.334 159.886 143.706 159.418 143.322 158.781L94.484 77.812C94.0996 77.1747 93.9903 76.4201 94.1802 75.7142C94.3701 75.0084 94.8436 74.4091 95.4966 74.0482L119.54 60.7594L118.641 59.2686C117.462 57.3091 117.128 54.9906 117.711 52.8218C118.295 50.653 119.748 48.811 121.753 47.6999L146.771 33.8725C145.425 33.2939 143.963 33.0272 142.502 33.0941C141.042 33.161 139.623 33.5595 138.363 34.2576L90.0498 60.9601C88.9927 61.5444 88.0685 62.3261 87.33 63.2608C86.5915 64.1954 86.0532 65.2646 85.7458 66.4073C85.4383 67.55 85.3678 68.7439 85.5382 69.9207C85.7086 71.0976 86.1167 72.2343 86.739 73.2661L143.64 167.602C144.897 169.686 146.95 171.216 149.348 171.855C151.747 172.494 154.294 172.19 156.428 171.01L204.741 144.307C206.876 143.127 208.424 141.168 209.045 138.86C209.666 136.552 209.309 134.085 208.052 132.001L167.431 64.6561L163.679 66.73L200.23 127.327ZM183.289 149.688L172.022 155.915L170.282 153.031L181.549 146.804L183.289 149.688Z" fill="#D8D8D8"/>
</g>
<defs>
<linearGradient id="paint0_linear_112_335" x1="154.5" y1="23" x2="154.5" y2="260" gradientUnits="userSpaceOnUse">
<stop stop-color="#FF0000" stop-opacity="0"/>
<stop offset="1" stop-color="#8A0000" stop-opacity="0.38"/>
</linearGradient>
<clipPath id="clip0_112_335">
<rect width="147" height="147" fill="white" transform="translate(51 73.5) rotate(-30)"/>
</clipPath>
</defs>
</svg>
