<svg width="309" height="317" viewBox="0 0 309 317" fill="none" xmlns="http://www.w3.org/2000/svg">
<path d="M7.62939e-06 50L269 50C291.091 50 309 67.9086 309 90L309 247C309 269.091 291.091 287 269 287L40 287C17.9086 287 8.76645e-06 269.091 8.6518e-06 247L7.62939e-06 50Z" fill="url(#paint0_linear_112_338)"/>
<path d="M97.932 218L97.236 203.024L91.86 202.112L91.404 211.736C91.372 212.504 91.18 213.264 90.828 214.016C90.492 214.752 89.94 215.488 89.172 216.224C88.404 216.96 87.348 217.72 86.004 218.504L85.884 218.312C86.828 217.064 87.492 215.88 87.876 214.76C88.276 213.624 88.476 212.656 88.476 211.856L88.476 211.544L87.828 199.28L92.004 199.28L91.908 201.2L101.436 199.04L100.356 218L97.932 218ZM114.204 221.768L117.612 216.224L111.684 205.352L115.86 204.32L118.932 214.064L124.812 204.416L125.148 204.416L118.236 223.496L114.204 221.768ZM144.66 218L144.468 214.064C143.972 214.384 143.436 214.648 142.86 214.856C142.284 215.048 141.74 215.144 141.228 215.144C139.964 215.144 138.972 214.712 138.252 213.848C137.548 212.984 137.148 211.864 137.052 210.488L136.668 204.632L140.772 204.632L140.412 210.296C140.412 210.376 140.404 210.456 140.388 210.536C140.388 210.6 140.388 210.672 140.388 210.752C140.388 211.424 140.54 211.904 140.844 212.192C141.164 212.464 141.692 212.6 142.428 212.6C142.7 212.6 143.004 212.56 143.34 212.48C143.676 212.4 144.02 212.28 144.372 212.12L144.036 204.608L148.236 204.608L147.612 218L144.66 218ZM171.612 218L171.54 216.44L159.156 218.288L158.124 204.632L162.108 204.632L161.58 214.568L165.348 214.976L164.532 204.632L168.54 204.632L167.892 215.264L171.492 215.672L170.94 204.632L174.948 204.632L173.916 218L171.612 218ZM195.396 218.312L193.212 210.008L185.748 218.312L185.34 218.312L184.068 204.632L188.412 204.632L187.452 213.872L193.14 204.632L197.076 204.632L195.78 218.312L195.396 218.312ZM220.572 218.312C218.108 218.312 216.052 218.2 214.404 217.976C212.756 217.752 211.452 217.384 210.492 216.872C209.532 216.36 208.844 215.688 208.428 214.856C208.012 214.024 207.804 213.008 207.804 211.808C207.804 210.256 208.092 208.92 208.668 207.8C209.244 206.68 209.996 205.824 210.924 205.232C211.868 204.624 212.86 204.32 213.9 204.32C214.732 204.32 215.572 204.448 216.42 204.704C217.268 204.96 218.06 205.376 218.796 205.952C219.532 206.528 220.132 207.288 220.596 208.232C221.06 209.16 221.324 210.304 221.388 211.664L211.188 212.816C211.332 213.696 211.732 214.448 212.388 215.072C213.06 215.68 214.068 216.216 215.412 216.68C216.756 217.144 218.508 217.592 220.668 218.024L220.572 218.312ZM217.38 209.696C217.3 209.072 217.116 208.48 216.828 207.92C216.54 207.36 216.172 206.912 215.724 206.576C215.276 206.224 214.78 206.048 214.236 206.048C213.596 206.048 213.044 206.2 212.58 206.504C212.116 206.808 211.756 207.392 211.5 208.256C211.244 209.104 211.116 210.352 211.116 212C211.116 212.08 211.116 212.16 211.116 212.24C211.116 212.304 211.124 212.376 211.14 212.456L217.38 209.696ZM101.148 253.312C98.684 253.312 96.628 253.2 94.98 252.976C93.332 252.752 92.028 252.384 91.068 251.872C90.108 251.36 89.42 250.688 89.004 249.856C88.588 249.024 88.38 248.008 88.38 246.808C88.38 245.256 88.628 243.92 89.124 242.8C89.62 241.68 90.292 240.824 91.14 240.232C92.004 239.624 92.972 239.32 94.044 239.32C95.5 239.32 96.812 239.48 97.98 239.8C99.164 240.104 100.148 240.48 100.932 240.928L99.396 244.12C98.42 243.144 97.548 242.392 96.78 241.864C96.012 241.32 95.228 241.048 94.428 241.048C93.964 241.048 93.54 241.24 93.156 241.624C92.772 241.992 92.468 242.608 92.244 243.472C92.036 244.336 91.932 245.512 91.932 247C91.932 248.072 92.244 248.968 92.868 249.688C93.492 250.408 94.484 251.032 95.844 251.56C97.22 252.072 99.02 252.568 101.244 253.048L101.148 253.312ZM125.124 253.312L117.876 247.384L116.436 248.944L116.22 253L113.268 253L112.764 239.608L116.964 239.608L116.604 246.04L120.492 239.32L124.668 240.04L120.228 244.816L125.364 253.312L125.124 253.312ZM147.396 253.312L145.212 245.008L137.748 253.312L137.34 253.312L136.068 239.632L140.412 239.632L139.452 248.872L145.14 239.632L149.076 239.632L147.78 253.312L147.396 253.312ZM172.74 255.352L171.252 252.928L161.796 251.968L161.532 255.112L158.748 255.112L158.1 249.712L161.364 249.712C161.636 249.04 161.828 248.472 161.94 248.008C162.052 247.544 162.108 247.104 162.108 246.688C162.108 246.592 162.108 246.496 162.108 246.4C162.108 246.304 162.1 246.2 162.084 246.088L161.46 239.632L165.66 239.632L165.516 241.192L172.284 239.392L171.756 249.76L174.54 249.52L173.052 255.352L172.74 255.352ZM168.252 242.968L165.42 242.2L165.036 246.232C164.988 246.728 164.868 247.192 164.676 247.624C164.484 248.056 164.164 248.512 163.716 248.992C163.268 249.456 162.636 249.984 161.82 250.576L168.756 250L168.252 242.968ZM197.124 253.312L189.876 247.384L188.436 248.944L188.22 253L185.268 253L184.764 239.608L188.964 239.608L188.604 246.04L192.492 239.32L196.668 240.04L192.228 244.816L197.364 253.312L197.124 253.312ZM219.396 253.312L217.212 245.008L209.748 253.312L209.34 253.312L208.068 239.632L212.412 239.632L211.452 248.872L217.14 239.632L221.076 239.632L219.78 253.312L219.396 253.312Z" fill="white"/>
<g clip-path="url(#clip0_112_338)">
<path d="M231.983 87.0349L156.353 38.1235C154.801 37.1192 152.961 36.6117 151.094 36.6726C149.227 36.7334 147.427 37.3596 145.948 38.4626L116.336 60.6545C116.28 60.6964 116.248 60.7552 116.197 60.8011C116.141 60.8416 116.086 60.8848 116.033 60.9306L103.196 74.9438L72.9289 70.4954C72.6396 70.453 72.3444 70.4662 72.0603 70.5341C71.7762 70.602 71.5087 70.7233 71.2731 70.8912C70.7972 71.2301 70.4801 71.738 70.3916 72.3031C70.303 72.8681 70.4502 73.444 70.8008 73.9041C71.1514 74.3642 71.6767 74.6708 72.2611 74.7564L99.6746 78.7838L91.199 88.0352C89.9496 89.3831 89.174 91.0791 88.9835 92.8798C88.7931 94.6805 89.1976 96.4932 90.1391 98.0578L135.667 174.242C136.851 176.219 138.799 177.661 141.081 178.252C143.364 178.842 145.796 178.533 147.843 177.392L205.723 145.056C207.519 144.066 208.898 142.496 209.616 140.622C210.335 138.747 210.348 136.688 209.653 134.805L234.434 99.0009C235.747 97.0988 236.226 94.7711 235.766 92.528C235.307 90.285 233.946 88.3096 231.983 87.0349ZM205.078 135.364C205.11 135.441 205.147 135.516 205.188 135.589C205.742 136.568 205.875 137.72 205.557 138.793C205.24 139.867 204.499 140.776 203.493 141.325L145.614 173.661C144.59 174.232 143.374 174.386 142.233 174.091C141.091 173.796 140.118 173.075 139.526 172.086L93.9977 95.902C93.5272 95.1215 93.3249 94.2168 93.4198 93.318C93.5147 92.4193 93.9019 91.5728 94.5258 90.9002L104.92 79.554L119.995 81.7689C120.098 83.0196 120.486 84.2329 121.13 85.322C122.012 86.7978 123.327 87.9876 124.908 88.7409C126.489 89.4943 128.266 89.7773 130.014 89.5542C131.761 89.3311 133.401 88.612 134.726 87.4878C136.051 86.3635 137.002 84.8846 137.457 83.2381C137.913 81.5916 137.853 79.8514 137.286 78.2376C136.719 76.6238 135.67 75.2089 134.271 74.1718C132.872 73.1346 131.186 72.5219 129.427 72.411C127.668 72.3001 125.914 72.6961 124.388 73.5488C122.763 74.4617 121.481 75.8522 120.729 77.5179L108.439 75.7124L118.875 64.3218L154.863 57.196C155.776 57.0117 156.725 57.1117 157.575 57.4816C158.426 57.8515 159.133 58.4723 159.595 59.2549L205.078 135.364ZM129.352 78.7848L125.48 78.2158C125.801 77.8431 126.186 77.5263 126.618 77.2792C127.419 76.8207 128.346 76.6127 129.273 76.6839C130.2 76.755 131.082 77.1018 131.797 77.6767C132.512 78.2515 133.026 79.0263 133.268 79.8946C133.51 80.763 133.468 81.6825 133.148 82.5269C132.828 83.3713 132.246 84.0993 131.481 84.6111C130.716 85.1228 129.806 85.3932 128.876 85.3852C127.946 85.3772 127.041 85.0911 126.286 84.5663C125.531 84.0414 124.962 83.3035 124.658 82.4537L128.685 83.0454C129.269 83.131 129.865 82.9887 130.341 82.6497C130.816 82.3107 131.134 81.8028 131.222 81.2378C131.311 80.6727 131.163 80.0968 130.813 79.6367C130.462 79.1766 129.937 78.87 129.353 78.7844L129.352 78.7848ZM230.732 96.6032L230.729 96.6046L207.296 130.463L163.453 57.0985C162.523 55.5301 161.103 54.2866 159.397 53.5465C157.691 52.8063 155.787 52.6074 153.956 52.9783L126.631 58.389L148.672 41.8719C149.411 41.3206 150.311 41.0077 151.244 40.9775C152.177 40.9473 153.096 41.2012 153.872 41.7034L229.501 90.6144C230.484 91.252 231.166 92.2403 231.396 93.3629C231.627 94.4855 231.388 95.6507 230.732 96.6032Z" fill="white"/>
<path d="M139.511 126.295C141.638 125.104 143.272 123.237 144.135 121.011C144.998 118.786 145.037 116.34 144.244 114.09C143.451 111.841 141.876 109.926 139.787 108.674C137.698 107.421 135.225 106.907 132.788 107.219C130.351 107.532 128.102 108.652 126.423 110.388C124.745 112.124 123.74 114.37 123.582 116.741C123.423 119.113 124.12 121.465 125.553 123.395C126.987 125.326 129.068 126.717 131.443 127.33C132.792 127.68 134.199 127.769 135.584 127.591C136.968 127.413 138.303 126.973 139.511 126.295ZM128.222 115.85C128.591 114.514 129.428 113.343 130.59 112.536C131.752 111.73 133.168 111.338 134.596 111.427C136.023 111.517 137.375 112.082 138.419 113.027C139.464 113.972 140.138 115.238 140.325 116.609C140.513 117.981 140.203 119.372 139.448 120.548C138.694 121.723 137.541 122.608 136.186 123.054C134.832 123.499 133.36 123.477 132.02 122.99C130.681 122.503 129.558 121.583 128.842 120.385C128.434 119.706 128.17 118.956 128.063 118.178C127.957 117.4 128.011 116.609 128.222 115.85Z" fill="white"/>
<path d="M161.731 124.196C161.187 126.16 161.258 128.237 161.935 130.163C162.612 132.088 163.865 133.777 165.534 135.014C167.203 136.252 169.215 136.983 171.314 137.115C173.413 137.248 175.506 136.775 177.327 135.758C179.148 134.74 180.617 133.223 181.547 131.399C182.476 129.574 182.826 127.524 182.55 125.508C182.275 123.491 181.388 121.599 180 120.07C178.613 118.541 176.788 117.445 174.756 116.919C173.406 116.56 171.996 116.464 170.608 116.636C169.22 116.809 167.881 117.246 166.669 117.923C165.457 118.6 164.397 119.503 163.549 120.58C162.701 121.657 162.083 122.886 161.731 124.196ZM177.978 128.398C177.608 129.735 176.771 130.906 175.609 131.712C174.447 132.519 173.031 132.911 171.604 132.821C170.176 132.732 168.825 132.166 167.78 131.221C166.735 130.276 166.062 129.011 165.874 127.639C165.686 126.268 165.996 124.876 166.751 123.701C167.506 122.526 168.658 121.64 170.013 121.195C171.367 120.75 172.839 120.772 174.179 121.259C175.518 121.745 176.641 122.666 177.357 123.863C178.177 125.236 178.4 126.867 177.978 128.398Z" fill="white"/>
<path d="M160.92 93.8638C160.349 93.7162 159.741 93.7938 159.23 94.0797C158.718 94.3655 158.345 94.8361 158.192 95.3881L143.701 147.747C143.621 148.022 143.597 148.31 143.633 148.593C143.668 148.877 143.761 149.151 143.907 149.4C144.053 149.648 144.248 149.866 144.482 150.041C144.716 150.215 144.983 150.343 145.269 150.417C145.554 150.491 145.852 150.509 146.145 150.471C146.438 150.432 146.719 150.338 146.974 150.193C147.229 150.048 147.451 149.856 147.628 149.627C147.805 149.399 147.934 149.138 148.006 148.861L162.497 96.5014C162.65 95.9495 162.569 95.3615 162.274 94.8669C161.978 94.3722 161.491 94.0114 160.92 93.8638Z" fill="white"/>
</g>
<defs>
<linearGradient id="paint0_linear_112_338" x1="154.5" y1="50" x2="154.5" y2="287" gradientUnits="userSpaceOnUse">
<stop stop-color="#FF0000" stop-opacity="0"/>
<stop offset="1" stop-color="#8A0000" stop-opacity="0.38"/>
</linearGradient>
<clipPath id="clip0_112_338">
<rect width="143" height="143" fill="white" transform="translate(58 71.5) rotate(-30)"/>
</clipPath>
</defs>
</svg>
