<svg width="309" height="294" viewBox="0 0 309 294" fill="none" xmlns="http://www.w3.org/2000/svg">
<path d="M0 11H269C291.091 11 309 28.9086 309 51V208C309 230.091 291.091 248 269 248H40C17.9086 248 0 230.091 0 208V11Z" fill="url(#paint0_linear_112_336)"/>
<path d="M102.924 195.264L93.108 185.856L92.1 186.792L91.812 195H88.788L88.14 176.28H92.46L92.172 184.632L98.292 176.04L102.636 177.192L96.18 183.048L103.26 195.288L102.924 195.264ZM113.1 200.088L112.284 181.632H116.484L116.412 183.384C117.052 182.84 117.812 182.36 118.692 181.944C119.572 181.528 120.428 181.32 121.26 181.32C122.78 181.32 123.908 181.792 124.644 182.736C125.396 183.664 125.772 184.984 125.772 186.696C125.772 188.376 125.372 189.816 124.572 191.016C123.772 192.2 122.636 193.136 121.164 193.824C119.692 194.512 117.956 194.96 115.956 195.168L115.764 200.088H113.1ZM116.004 194.112C117.588 193.568 118.828 192.92 119.724 192.168C120.62 191.416 121.252 190.592 121.62 189.696C121.988 188.8 122.172 187.864 122.172 186.888C122.172 185.8 121.988 185.016 121.62 184.536C121.252 184.056 120.716 183.816 120.012 183.816C119.372 183.816 118.764 183.864 118.188 183.96C117.628 184.056 117.02 184.232 116.364 184.488L116.004 194.112ZM138.204 198.768L141.612 193.224L135.684 182.352L139.86 181.32L142.932 191.064L148.812 181.416H149.148L142.236 200.496L138.204 198.768ZM164.94 195L164.388 184.536L160.092 185.328V181.44L173.532 182.568V182.808L168.588 183.744L168.012 195H164.94ZM196.044 195L195.444 181.632H199.404L198.804 195H196.044ZM182.268 181.632H186.084L185.94 186.168C186.484 186.088 186.988 186.024 187.452 185.976C187.932 185.928 188.372 185.904 188.772 185.904C189.828 185.904 190.692 186.024 191.364 186.264C192.052 186.488 192.588 186.792 192.972 187.176C193.356 187.56 193.62 187.976 193.764 188.424C193.924 188.872 194.004 189.304 194.004 189.72C194.004 190.52 193.836 191.264 193.5 191.952C193.18 192.624 192.604 193.208 191.772 193.704C190.956 194.2 189.812 194.592 188.34 194.88C186.868 195.152 184.988 195.288 182.7 195.288L182.268 181.632ZM185.82 194.016C187.036 193.744 187.948 193.4 188.556 192.984C189.164 192.568 189.572 192.088 189.78 191.544C189.988 190.984 190.092 190.392 190.092 189.768C190.092 189.096 189.9 188.576 189.516 188.208C189.132 187.824 188.348 187.632 187.164 187.632C186.972 187.632 186.772 187.632 186.564 187.632C186.356 187.632 186.14 187.648 185.916 187.68L185.82 194.016ZM220.572 195.312C218.108 195.312 216.052 195.2 214.404 194.976C212.756 194.752 211.452 194.384 210.492 193.872C209.532 193.36 208.844 192.688 208.428 191.856C208.012 191.024 207.804 190.008 207.804 188.808C207.804 187.256 208.092 185.92 208.668 184.8C209.244 183.68 209.996 182.824 210.924 182.232C211.868 181.624 212.86 181.32 213.9 181.32C214.732 181.32 215.572 181.448 216.42 181.704C217.268 181.96 218.06 182.376 218.796 182.952C219.532 183.528 220.132 184.288 220.596 185.232C221.06 186.16 221.324 187.304 221.388 188.664L211.188 189.816C211.332 190.696 211.732 191.448 212.388 192.072C213.06 192.68 214.068 193.216 215.412 193.68C216.756 194.144 218.508 194.592 220.668 195.024L220.572 195.312ZM217.38 186.696C217.3 186.072 217.116 185.48 216.828 184.92C216.54 184.36 216.172 183.912 215.724 183.576C215.276 183.224 214.78 183.048 214.236 183.048C213.596 183.048 213.044 183.2 212.58 183.504C212.116 183.808 211.756 184.392 211.5 185.256C211.244 186.104 211.116 187.352 211.116 189C211.116 189.08 211.116 189.16 211.116 189.24C211.116 189.304 211.124 189.376 211.14 189.456L217.38 186.696ZM53.556 233.312L51.636 229.928L41.076 228.896L40.764 233.072H37.98L37.092 226.856H40.02C40.484 225.752 40.812 224.712 41.004 223.736C41.196 222.76 41.292 221.928 41.292 221.24C41.292 221.144 41.284 221.056 41.268 220.976C41.268 220.88 41.268 220.8 41.268 220.736L40.62 211.28H44.796L44.676 213.128L53.436 211.04L52.404 226.544L55.356 226.28L53.868 233.312H53.556ZM49.236 215.024L44.604 214.16L44.196 220.928C44.164 221.552 44.028 222.28 43.788 223.112C43.564 223.928 43.228 224.736 42.78 225.536C42.348 226.336 41.804 227.024 41.148 227.6L49.908 226.784L49.236 215.024ZM77.508 223.328C77.508 224.384 77.292 225.344 76.86 226.208C76.428 227.056 75.86 227.784 75.156 228.392C74.452 229 73.692 229.472 72.876 229.808C72.06 230.128 71.268 230.288 70.5 230.288C69.732 230.288 68.94 230.128 68.124 229.808C67.308 229.472 66.54 229 65.82 228.392C65.116 227.784 64.54 227.056 64.092 226.208C63.66 225.344 63.444 224.384 63.444 223.328C63.444 222.272 63.66 221.312 64.092 220.448C64.54 219.584 65.116 218.848 65.82 218.24C66.54 217.616 67.308 217.144 68.124 216.824C68.94 216.488 69.732 216.32 70.5 216.32C71.268 216.32 72.06 216.488 72.876 216.824C73.692 217.144 74.452 217.616 75.156 218.24C75.86 218.848 76.428 219.584 76.86 220.448C77.292 221.312 77.508 222.272 77.508 223.328ZM71.22 228.56C72.068 228.56 72.716 228.256 73.164 227.648C73.612 227.024 73.836 225.904 73.836 224.288C73.836 222.848 73.612 221.672 73.164 220.76C72.732 219.848 72.204 219.184 71.58 218.768C70.956 218.336 70.356 218.12 69.78 218.12C69.22 218.12 68.74 218.248 68.34 218.504C67.94 218.76 67.636 219.2 67.428 219.824C67.22 220.432 67.116 221.28 67.116 222.368C67.116 223.344 67.244 224.216 67.5 224.984C67.772 225.752 68.116 226.408 68.532 226.952C68.948 227.48 69.388 227.88 69.852 228.152C70.332 228.424 70.788 228.56 71.22 228.56ZM101.148 230.312C98.684 230.312 96.628 230.2 94.98 229.976C93.332 229.752 92.028 229.384 91.068 228.872C90.108 228.36 89.42 227.688 89.004 226.856C88.588 226.024 88.38 225.008 88.38 223.808C88.38 222.256 88.628 220.92 89.124 219.8C89.62 218.68 90.292 217.824 91.14 217.232C92.004 216.624 92.972 216.32 94.044 216.32C95.5 216.32 96.812 216.48 97.98 216.8C99.164 217.104 100.148 217.48 100.932 217.928L99.396 221.12C98.42 220.144 97.548 219.392 96.78 218.864C96.012 218.32 95.228 218.048 94.428 218.048C93.964 218.048 93.54 218.24 93.156 218.624C92.772 218.992 92.468 219.608 92.244 220.472C92.036 221.336 91.932 222.512 91.932 224C91.932 225.072 92.244 225.968 92.868 226.688C93.492 227.408 94.484 228.032 95.844 228.56C97.22 229.072 99.02 229.568 101.244 230.048L101.148 230.312ZM116.94 230L116.388 219.536L112.092 220.328V216.44L125.532 217.568V217.808L120.588 218.744L120.012 230H116.94ZM147.396 230.312L145.212 222.008L137.748 230.312H137.34L136.068 216.632H140.412L139.452 225.872L145.14 216.632H149.076L147.78 230.312H147.396ZM175.836 230.312L169.26 224.6L168.204 225.848L168.012 230H165.06L164.868 225.848L163.812 224.6L157.236 230.312L156.996 230.288L161.844 222.272L157.452 217.04L161.388 216.32L164.748 223.088L164.436 216.632H168.636L168.324 223.088L171.684 216.32L175.62 217.04L171.228 222.272L176.076 230.312H175.836ZM196.572 230.312C194.108 230.312 192.052 230.2 190.404 229.976C188.756 229.752 187.452 229.384 186.492 228.872C185.532 228.36 184.844 227.688 184.428 226.856C184.012 226.024 183.804 225.008 183.804 223.808C183.804 222.256 184.092 220.92 184.668 219.8C185.244 218.68 185.996 217.824 186.924 217.232C187.868 216.624 188.86 216.32 189.9 216.32C190.732 216.32 191.572 216.448 192.42 216.704C193.268 216.96 194.06 217.376 194.796 217.952C195.532 218.528 196.132 219.288 196.596 220.232C197.06 221.16 197.324 222.304 197.388 223.664L187.188 224.816C187.332 225.696 187.732 226.448 188.388 227.072C189.06 227.68 190.068 228.216 191.412 228.68C192.756 229.144 194.508 229.592 196.668 230.024L196.572 230.312ZM193.38 221.696C193.3 221.072 193.116 220.48 192.828 219.92C192.54 219.36 192.172 218.912 191.724 218.576C191.276 218.224 190.78 218.048 190.236 218.048C189.596 218.048 189.044 218.2 188.58 218.504C188.116 218.808 187.756 219.392 187.5 220.256C187.244 221.104 187.116 222.352 187.116 224C187.116 224.08 187.116 224.16 187.116 224.24C187.116 224.304 187.124 224.376 187.14 224.456L193.38 221.696ZM217.284 230L216.972 223.496L212.076 224.84L211.836 230H208.884L208.26 216.632H212.46L212.22 221.624L216.948 223.016L216.66 216.632H220.86L220.236 230H217.284ZM243.396 230.312L241.212 222.008L233.748 230.312H233.34L232.068 216.632H236.412L235.452 225.872L241.14 216.632H245.076L243.78 230.312H243.396ZM264.708 230L264.348 224.312L257.148 230.312H257.004L259.404 225.512C258.332 225.352 257.46 224.976 256.788 224.384C256.116 223.792 255.78 222.936 255.78 221.816C255.78 220.472 256.204 219.4 257.052 218.6C257.916 217.8 259.252 217.224 261.06 216.872C262.884 216.504 265.228 216.32 268.092 216.32L267.372 230H264.708ZM263.94 217.712C262.708 217.952 261.756 218.288 261.084 218.72C260.428 219.152 259.98 219.624 259.74 220.136C259.5 220.632 259.38 221.128 259.38 221.624C259.38 222.168 259.564 222.616 259.932 222.968C260.3 223.32 260.836 223.496 261.54 223.496C262.004 223.496 262.46 223.448 262.908 223.352C263.356 223.24 263.804 223.08 264.252 222.872L263.94 217.712Z" fill="white"/>
<path d="M205.891 53.625C205.891 25.2873 182.838 2.23438 154.5 2.23438C126.162 2.23438 103.109 25.2873 103.109 53.625C103.109 60.9154 104.624 67.9527 107.578 74.5754V136.297C107.578 138.765 109.579 140.766 112.047 140.766C114.515 140.766 116.516 138.765 116.516 136.297V88.2229C117.149 88.9149 117.803 89.5858 118.472 90.2407C118.598 90.3644 118.731 90.4803 118.859 90.6027C119.514 91.2311 120.185 91.8405 120.871 92.4327C121.12 92.6483 121.373 92.8598 121.627 93.0705C122.265 93.6002 122.915 94.1131 123.577 94.6111C123.789 94.771 123.997 94.9368 124.212 95.0934C125.071 95.7195 125.948 96.3196 126.844 96.8916C127.052 97.0248 127.267 97.1476 127.477 97.2778C128.192 97.7202 128.917 98.1459 129.652 98.5531C129.945 98.7151 130.239 98.8745 130.534 99.0308C131.3 99.4354 132.075 99.8203 132.861 100.186C133.059 100.279 133.254 100.379 133.454 100.469C134.426 100.908 135.414 101.314 136.414 101.692C136.675 101.79 136.941 101.879 137.204 101.974C137.978 102.252 138.759 102.513 139.547 102.754C139.861 102.851 140.175 102.946 140.491 103.037C141.401 103.297 142.318 103.534 143.243 103.744C143.382 103.775 143.517 103.814 143.656 103.844C144.712 104.074 145.78 104.264 146.855 104.427C147.154 104.473 147.455 104.508 147.755 104.548C148.574 104.658 149.396 104.748 150.223 104.818C150.544 104.845 150.865 104.874 151.187 104.895C152.286 104.967 153.389 105.016 154.5 105.016C155.611 105.016 156.714 104.967 157.813 104.895C158.135 104.874 158.456 104.845 158.777 104.818C159.604 104.748 160.426 104.658 161.245 104.548C161.545 104.508 161.846 104.473 162.146 104.427C163.22 104.264 164.287 104.074 165.344 103.844C165.483 103.814 165.62 103.774 165.759 103.743C166.684 103.533 167.6 103.296 168.509 103.037C168.825 102.947 169.139 102.851 169.453 102.754C170.243 102.512 171.025 102.251 171.8 101.972C172.061 101.878 172.325 101.79 172.584 101.692C173.585 101.314 174.574 100.908 175.548 100.469C175.745 100.38 175.937 100.281 176.134 100.189C176.923 99.8211 177.703 99.4339 178.472 99.0271C178.763 98.8731 179.052 98.7166 179.34 98.5572C180.084 98.1456 180.817 97.7154 181.539 97.268C181.742 97.142 181.95 97.0233 182.151 96.8947C183.051 96.3199 183.933 95.7166 184.796 95.0872C185.002 94.9376 185.2 94.779 185.403 94.6264C186.076 94.1203 186.737 93.5987 187.385 93.0601C187.632 92.8553 187.877 92.6502 188.12 92.4407C188.821 91.8362 189.506 91.214 190.174 90.5717C190.288 90.4619 190.408 90.3583 190.521 90.2474C191.192 89.5903 191.849 88.9172 192.484 88.2229V130.2L155.846 118.629C155.83 118.624 155.813 118.624 155.796 118.619C155.646 118.573 155.489 118.552 155.334 118.522C155.2 118.496 155.066 118.457 154.932 118.444C154.816 118.433 154.698 118.445 154.58 118.442C154.406 118.439 154.231 118.427 154.059 118.445C153.958 118.455 153.857 118.486 153.756 118.503C153.568 118.536 153.38 118.564 153.199 118.62C153.184 118.624 153.169 118.624 153.154 118.629L126.341 127.095C123.989 127.839 122.682 130.349 123.426 132.703C124.028 134.608 125.789 135.828 127.685 135.828C128.133 135.828 128.586 135.76 129.034 135.618L154.5 127.577L195.607 140.558C196.048 140.698 196.501 140.766 196.953 140.766C197.891 140.766 198.819 140.469 199.596 139.902C200.743 139.059 201.422 137.722 201.422 136.297V74.576C204.375 67.9559 205.891 60.9169 205.891 53.625ZM148.44 95.6387C134.502 93.608 122.196 84.6765 116.09 71.7412C113.406 66.0421 112.047 59.9459 112.047 53.625C112.047 30.2164 131.091 11.1719 154.5 11.1719C177.909 11.1719 196.953 30.2164 196.953 53.625C196.953 59.9463 195.594 66.0428 192.912 71.7378C185.934 86.5231 170.856 96.0781 154.5 96.0781C152.455 96.0781 150.431 95.9289 148.44 95.6387Z" fill="#D8D8D8"/>
<path d="M166.189 75.9098C168.469 76.8612 171.083 75.7789 172.032 73.5009C172.979 71.2229 171.901 68.6067 169.623 67.6575L156.217 62.0781C155.117 61.6199 153.882 61.6199 152.783 62.0781L145.58 65.0762L146.204 57.2995C146.3 56.1125 145.918 54.9364 145.144 54.033L140.066 48.1089L147.657 46.3C148.816 46.0251 149.815 45.2985 150.435 44.2816L154.5 37.6222L158.565 44.2816C159.185 45.2985 160.184 46.0251 161.343 46.3L168.934 48.1089L163.856 54.033C162.25 55.9074 162.466 58.7287 164.341 60.3347C166.215 61.9406 169.036 61.7224 170.642 59.8503L180.483 48.3685C181.498 47.1859 181.821 45.5603 181.341 44.0787C180.859 42.5971 179.641 41.4734 178.127 41.1134L165.225 38.0367L158.314 26.7187C157.502 25.3898 156.058 24.5781 154.5 24.5781C152.942 24.5781 151.498 25.3898 150.686 26.7187L143.775 38.0367L130.873 41.1134C129.359 41.4734 128.141 42.5971 127.659 44.0787C127.179 45.5603 127.502 47.1859 128.517 48.3685L137.146 58.4385L136.086 71.6571C135.959 73.2085 136.653 74.7141 137.912 75.6305C138.689 76.1935 139.61 76.4837 140.539 76.4837C141.12 76.4837 141.705 76.3702 142.257 76.1411L154.5 71.044L166.189 75.9098Z" fill="#D8D8D8"/>
<defs>
<linearGradient id="paint0_linear_112_336" x1="154.5" y1="11" x2="154.5" y2="248" gradientUnits="userSpaceOnUse">
<stop stop-color="#FF0000" stop-opacity="0"/>
<stop offset="1" stop-color="#8A0000" stop-opacity="0.38"/>
</linearGradient>
</defs>
</svg>
