<svg width="40" height="40" viewBox="0 0 40 40" fill="none" xmlns="http://www.w3.org/2000/svg">
<rect x="2" y="2" width="36" height="36" rx="18" stroke="white" stroke-opacity="0.7" stroke-width="4"/>
<g opacity="0.7">
<path d="M30.5164 29.2258L24.3203 23.0242C25.4578 21.6023 26.1414 19.7922 26.1414 17.8234C26.1414 13.2242 22.4171 9.5 17.8289 9.5C13.2351 9.5 9.51636 13.2297 9.51636 17.8234C9.51636 22.4172 13.2406 26.1469 17.8289 26.1469C19.8085 26.1469 21.6242 25.4523 23.0515 24.2984L29.2421 30.5L30.5164 29.2258ZM12.5679 23.0953C11.1625 21.6898 10.3914 19.8195 10.3914 17.8289C10.3914 15.8383 11.1679 13.968 12.5679 12.5625C13.9679 11.157 15.8437 10.375 17.8289 10.375C19.814 10.375 21.6843 11.1516 23.0898 12.557C24.4953 13.9625 25.2664 15.8328 25.2664 17.8234C25.2664 19.8141 24.4898 21.6844 23.0898 23.0898C21.6843 24.4953 19.814 25.2719 17.8289 25.2719C15.8437 25.2773 13.9734 24.5008 12.5679 23.0953Z" fill="white"/>
</g>
</svg>
